<svg width="48" height="48" viewBox="0 0 48 48" fill="none" xmlns="http://www.w3.org/2000/svg">
<path d="M45.3495 26.4414C47.0851 23.6908 48 20.5243 48 17.2499C48 7.73831 40.2617 0 30.7501 0C27.5641 0 24.4512 0.875719 21.7482 2.53247C21.3067 2.80303 21.1681 3.38016 21.4388 3.82162C21.7093 4.263 22.2864 4.40166 22.728 4.131C25.136 2.65509 27.9101 1.875 30.7501 1.875C39.2279 1.875 46.1251 8.77209 46.1251 17.2499C46.1251 20.3246 45.2206 23.2919 43.5094 25.8309C43.2825 26.1677 43.3019 26.6031 43.5354 26.9157L44.5627 30.7497L40.4392 29.6448C40.1691 29.5724 39.8808 29.6242 39.653 29.7864C37.0432 31.6434 33.9646 32.6249 30.7501 32.6249C28.9189 32.6249 27.1278 32.305 25.4244 31.6757C24.2252 27.2596 20.7408 23.7751 16.3247 22.576C15.6953 20.8726 15.3752 19.0818 15.3752 17.25C15.3752 14.3784 16.1716 11.578 17.6784 9.1515C17.9515 8.71163 17.8163 8.13366 17.3764 7.86047C16.9367 7.58738 16.3586 7.72247 16.0854 8.16244C14.3941 10.8863 13.5002 14.0287 13.5002 17.25C13.5002 18.9363 13.7422 20.5921 14.2194 22.1887C13.7976 22.1471 13.3701 22.1253 12.9377 22.1253C5.80393 22.1253 0.000244141 27.9291 0.000244141 35.0627C0.000244141 37.6229 0.740494 40.0806 2.14506 42.1991L1.14174 45.944C1.05503 46.2675 1.14756 46.6127 1.38437 46.8496C1.62118 47.0864 1.96628 47.1788 2.2899 47.0922L6.12756 46.0639C8.17131 47.3317 10.5166 48 12.9377 48C15.4019 48 17.7988 47.3044 19.8692 45.9883C20.3062 45.7105 20.4352 45.1312 20.1575 44.6942C19.8797 44.2572 19.3002 44.1282 18.8634 44.4059C17.094 45.5306 15.0451 46.125 12.9377 46.125C10.7439 46.125 8.62356 45.4839 6.80603 44.271C6.58168 44.1213 6.30371 44.0753 6.04299 44.1453L3.37299 44.8607L4.06806 42.2667C4.14053 41.9963 4.08831 41.7075 3.92565 41.4796C2.58418 39.5993 1.87515 37.3804 1.87515 35.0625C1.87515 28.9627 6.83781 24.0001 12.9376 24.0001C19.0373 24.0001 24.0001 28.9627 24.0001 35.0626C24.0001 36.3652 23.7761 37.6402 23.3343 38.852C23.157 39.3383 23.4076 39.8765 23.894 40.0538C24.3804 40.2311 24.9186 39.9806 25.0959 39.4942C25.6129 38.076 25.8751 36.585 25.8751 35.0626C25.8751 34.6301 25.8533 34.2027 25.8117 33.781C27.4084 34.2581 29.0644 34.4998 30.7501 34.4998C34.2072 34.4998 37.5245 33.4877 40.3732 31.5682L45.6459 32.981C45.9696 33.0677 46.3146 32.9752 46.5515 32.7383C46.7883 32.5015 46.8809 32.1563 46.7941 31.8327L45.3495 26.4414Z" fill="#FF3F3A"/>
<path d="M35.5827 19.2461H26.0339C25.5162 19.2461 25.0964 19.6658 25.0964 20.1836C25.0964 23.3331 27.6588 25.8955 30.8083 25.8955C33.9579 25.8955 36.5202 23.3331 36.5202 20.1836C36.5202 19.6658 36.1003 19.2461 35.5827 19.2461ZM30.8083 24.0204C29.016 24.0204 27.5068 22.785 27.0873 21.121H34.5295C34.1098 22.785 32.6006 24.0204 30.8083 24.0204Z" fill="#FF3F3A"/>
<path d="M38.1077 14.0455C37.836 13.6046 37.2584 13.4675 36.8178 13.739L36.6956 13.8145C36.2551 14.0867 36.1186 14.6643 36.3909 15.1048C36.5682 15.3918 36.8751 15.5497 37.1893 15.5497C37.3573 15.5497 37.5276 15.5045 37.6812 15.4096L37.8013 15.3354C38.2421 15.0638 38.3793 14.4863 38.1077 14.0455Z" fill="#FF3F3A"/>
<path d="M25.2266 14.0454C24.955 13.6046 24.3773 13.4675 23.9367 13.739L23.8145 13.8145C23.374 14.0867 23.2375 14.6644 23.5098 15.1048C23.6871 15.3918 23.994 15.5496 24.3082 15.5496C24.4763 15.5496 24.6465 15.5044 24.8001 15.4095L24.9202 15.3353C25.361 15.0637 25.4982 14.4862 25.2266 14.0454Z" fill="#FF3F3A"/>
<path d="M8.44333 34.3997C8.26895 34.2253 8.02708 34.125 7.78052 34.125C7.53396 34.125 7.29217 34.2253 7.11771 34.3997C6.94333 34.5741 6.84302 34.8159 6.84302 35.0625C6.84302 35.3091 6.94333 35.5509 7.11771 35.7253C7.29208 35.8997 7.53396 36 7.78052 36C8.02708 36 8.26895 35.8997 8.44333 35.7253C8.61771 35.5509 8.71802 35.3091 8.71802 35.0625C8.71802 34.8159 8.61771 34.5741 8.44333 34.3997Z" fill="#FF3F3A"/>
<path d="M13.5996 34.3997C13.4252 34.2253 13.1833 34.125 12.9368 34.125C12.6902 34.125 12.4484 34.2253 12.274 34.3997C12.0996 34.5741 11.9993 34.8159 11.9993 35.0625C11.9993 35.3091 12.0996 35.5509 12.274 35.7253C12.4483 35.8997 12.6902 36 12.9368 36C13.1833 36 13.4252 35.8997 13.5996 35.7253C13.774 35.5509 13.8743 35.3091 13.8743 35.0625C13.8743 34.8159 13.774 34.5741 13.5996 34.3997Z" fill="#FF3F3A"/>
<path d="M18.7566 34.3997C18.5822 34.2253 18.3403 34.125 18.0938 34.125C17.8472 34.125 17.6054 34.2253 17.4309 34.3997C17.2566 34.5741 17.1562 34.8159 17.1562 35.0625C17.1562 35.3091 17.2566 35.5509 17.4309 35.7253C17.6053 35.8997 17.8472 36 18.0938 36C18.3403 36 18.5822 35.8997 18.7566 35.7253C18.9309 35.5509 19.0312 35.3091 19.0312 35.0625C19.0312 34.8159 18.9309 34.5741 18.7566 34.3997Z" fill="#FF3F3A"/>
<path d="M22.9531 41.9182C22.7787 41.7439 22.5368 41.6436 22.2903 41.6436C22.0428 41.6436 21.8018 41.7439 21.6275 41.9182C21.4531 42.0926 21.3528 42.3345 21.3528 42.5811C21.3528 42.8276 21.4531 43.0695 21.6275 43.2439C21.8018 43.4182 22.0428 43.5186 22.2903 43.5186C22.5368 43.5186 22.7787 43.4182 22.9531 43.2439C23.1275 43.0695 23.2278 42.8276 23.2278 42.5811C23.2278 42.3345 23.1275 42.0926 22.9531 41.9182Z" fill="#FF3F3A"/>
<path d="M19.9099 5.0218C19.7355 4.84742 19.4936 4.74805 19.2471 4.74805C18.9996 4.74805 18.7586 4.84742 18.5843 5.0218C18.4089 5.19711 18.3096 5.43805 18.3096 5.68555C18.3096 5.93211 18.4089 6.17398 18.5843 6.34836C18.7586 6.52273 18.9995 6.62211 19.2471 6.62211C19.4936 6.62211 19.7355 6.52273 19.9099 6.34836C20.0843 6.17398 20.1846 5.93211 20.1846 5.68555C20.1846 5.43805 20.0843 5.19711 19.9099 5.0218Z" fill="#FF3F3A"/>
</svg>
