<svg width="216" height="203" fill="none" xmlns="http://www.w3.org/2000/svg"><g opacity=".8" clip-path="url(#a)" fill="#FFCF2D"><path d="M34.083 141.335c1.167.897 1.368 2.448.468 3.619-.9 1.172-2.45 1.377-3.618.48-1.167-.897-1.368-2.448-.468-3.619.9-1.171 2.548-1.302 3.618-.48Zm13.425-17.471c1.167.897 1.368 2.448.468 3.62-.9 1.171-2.45 1.376-3.618.479-1.167-.897-1.368-2.448-.467-3.619.825-1.074 2.547-1.302 3.617-.48Zm13.35-17.372c1.168.897 1.368 2.448.468 3.62-.9 1.171-2.45 1.376-3.618.479-1.167-.897-1.367-2.448-.467-3.619.9-1.171 2.547-1.302 3.617-.48Zm13.426-17.47c1.167.897 1.367 2.449.467 3.62-.9 1.171-2.45 1.377-3.617.48-1.168-.897-1.368-2.449-.468-3.62.9-1.17 2.548-1.302 3.618-.48Zm13.425-17.469c1.167.897 1.368 2.448.468 3.62-.9 1.17-2.45 1.376-3.618.479-1.167-.897-1.368-2.448-.468-3.62.825-1.073 2.548-1.301 3.618-.48Zm13.425-17.47c1.167.897 1.368 2.448.468 3.62-.9 1.17-2.45 1.376-3.618.48-1.167-.898-1.368-2.45-.468-3.62.9-1.171 2.548-1.302 3.618-.48Zm13.35-17.372c1.168.897 1.368 2.448.468 3.62-.9 1.17-2.45 1.376-3.618.479-1.167-.897-1.367-2.448-.467-3.62.9-1.17 2.547-1.301 3.617-.479Zm13.426-17.47c1.167.897 1.367 2.448.467 3.62-.9 1.17-2.45 1.376-3.617.48-1.168-.898-1.368-2.449-.468-3.62.9-1.171 2.548-1.302 3.618-.48Zm13.425-17.469c1.167.897 1.368 2.448.468 3.619-.9 1.171-2.451 1.377-3.618.48-1.167-.897-1.368-2.449-.468-3.62.825-1.073 2.548-1.302 3.618-.48ZM48.577 152.473c1.167.897 1.367 2.448.467 3.619-.9 1.171-2.45 1.377-3.617.48-1.168-.897-1.368-2.448-.468-3.62.9-1.171 2.45-1.376 3.618-.479Zm13.425-17.47c1.167.897 1.368 2.448.468 3.619-.9 1.171-2.45 1.377-3.618.48-1.167-.897-1.368-2.448-.468-3.619.825-1.074 2.45-1.377 3.618-.48Zm13.35-17.372c1.167.897 1.368 2.448.468 3.619-.9 1.171-2.45 1.377-3.618.48-1.167-.897-1.368-2.448-.468-3.619.9-1.172 2.45-1.377 3.618-.48Zm13.425-17.47c1.168.897 1.368 2.448.468 3.62-.9 1.171-2.45 1.376-3.618.479-1.167-.897-1.367-2.448-.468-3.619.9-1.171 2.451-1.377 3.618-.48Zm13.426-17.471c1.167.898 1.367 2.449.467 3.62-.9 1.171-2.45 1.377-3.618.48-1.167-.898-1.367-2.449-.467-3.62.825-1.073 2.45-1.377 3.618-.48Zm13.425-17.47c1.167.898 1.368 2.449.468 3.62-.9 1.171-2.451 1.377-3.618.48-1.167-.897-1.368-2.448-.468-3.62.9-1.17 2.451-1.376 3.618-.48Zm13.35-17.371c1.167.897 1.368 2.448.468 3.619-.9 1.171-2.451 1.377-3.618.48-1.167-.897-1.368-2.448-.468-3.62.9-1.17 2.451-1.376 3.618-.48Zm13.425-17.47c1.168.897 1.368 2.448.468 3.62-.9 1.17-2.451 1.376-3.618.479-1.167-.897-1.368-2.448-.468-3.62.9-1.17 2.451-1.376 3.618-.48Zm13.426-17.469c1.167.896 1.367 2.447.467 3.619-.9 1.17-2.45 1.376-3.618.48-1.167-.898-1.367-2.449-.467-3.62.825-1.074 2.45-1.377 3.618-.48ZM5.193 119.133c1.167.897 1.368 2.448.468 3.619-.9 1.171-2.451 1.377-3.618.48-1.168-.897-1.368-2.448-.468-3.619.9-1.172 2.45-1.377 3.618-.48Zm13.425-17.47c1.167.897 1.368 2.448.468 3.619-.9 1.172-2.45 1.377-3.618.48-1.167-.897-1.368-2.448-.468-3.619.825-1.074 2.45-1.377 3.618-.48Zm13.35-17.372c1.168.897 1.368 2.448.468 3.62-.9 1.17-2.45 1.376-3.618.48-1.167-.898-1.293-2.547-.468-3.62.9-1.171 2.45-1.377 3.618-.48Zm13.426-17.47c1.167.897 1.367 2.448.467 3.62-.9 1.17-2.45 1.376-3.618.48-1.167-.898-1.292-2.546-.467-3.62.825-1.073 2.45-1.377 3.617-.48Zm13.425-17.469c1.167.897 1.367 2.448.467 3.619-.9 1.171-2.45 1.377-3.617.48-1.168-.897-1.368-2.449-.468-3.62.825-1.073 2.45-1.376 3.618-.48ZM72.244 31.88c1.167.898 1.368 2.45.468 3.62-.9 1.171-2.45 1.377-3.618.48-1.167-.897-1.368-2.448-.468-3.62.9-1.17 2.45-1.376 3.618-.48Zm13.35-17.371c1.167.897 1.368 2.448.468 3.62-.9 1.17-2.45 1.376-3.618.479-1.167-.897-1.368-2.448-.468-3.62.9-1.17 2.45-1.376 3.618-.48ZM99.02-2.96c1.167.896 1.367 2.447.467 3.618-.9 1.172-2.45 1.377-3.618.48-1.167-.897-1.367-2.448-.467-3.62.9-1.17 2.45-1.376 3.617-.479ZM19.686 130.272c1.168.897 1.368 2.448.468 3.619-.9 1.171-2.548 1.302-3.618.48-1.167-.897-1.367-2.449-.467-3.62.9-1.171 2.45-1.377 3.617-.479Zm13.426-17.471c1.167.897 1.367 2.448.468 3.619-.9 1.171-2.451 1.377-3.618.48-1.168-.897-1.368-2.448-.468-3.619.825-1.074 2.45-1.377 3.618-.48Zm13.35-17.372c1.167.897 1.368 2.448.468 3.62-.9 1.17-2.45 1.376-3.618.479-1.167-.897-1.368-2.448-.468-3.62.9-1.17 2.45-1.376 3.618-.48Zm13.425-17.47c1.167.897 1.368 2.448.468 3.62-.9 1.17-2.45 1.376-3.618.48-1.167-.898-1.368-2.45-.468-3.62.9-1.171 2.45-1.377 3.618-.48ZM73.312 60.49c1.168.896 1.368 2.447.468 3.619-.9 1.17-2.45 1.376-3.618.48-1.167-.898-1.367-2.449-.467-3.62.825-1.074 2.45-1.377 3.617-.48Zm13.426-17.47c1.167.897 1.368 2.448.467 3.619-.9 1.171-2.45 1.377-3.617.48-1.168-.897-1.368-2.449-.468-3.62.9-1.17 2.45-1.377 3.618-.48Zm13.35-17.372c1.167.896 1.368 2.448.468 3.619-.9 1.171-2.451 1.377-3.618.48-1.168-.898-1.368-2.449-.468-3.62.9-1.17 2.45-1.377 3.618-.48Zm13.425-17.47c1.167.897 1.368 2.448.468 3.62-.9 1.17-2.451 1.376-3.618.479-1.167-.897-1.368-2.448-.468-3.62.9-1.17 2.451-1.376 3.618-.48ZM62.974 163.536c1.167.897 1.367 2.448.467 3.62-.9 1.171-2.45 1.376-3.617.479-1.168-.897-1.368-2.448-.468-3.619.9-1.171 2.548-1.302 3.618-.48Zm13.425-17.47c1.167.897 1.368 2.449.468 3.62-.9 1.171-2.45 1.377-3.618.48-1.167-.898-1.368-2.449-.468-3.62.825-1.073 2.548-1.302 3.618-.48Zm13.35-17.372c1.167.897 1.368 2.449.468 3.62-.9 1.171-2.45 1.376-3.618.479-1.167-.897-1.368-2.448-.468-3.619.9-1.171 2.548-1.302 3.618-.48Zm13.425-17.469c1.168.897 1.368 2.448.468 3.619-.9 1.171-2.451 1.377-3.618.48-1.167-.897-1.368-2.448-.468-3.62.9-1.171 2.548-1.302 3.618-.479Zm13.426-17.47c1.167.897 1.367 2.448.467 3.62-.9 1.17-2.45 1.376-3.618.479-1.167-.897-1.367-2.448-.467-3.62.825-1.073 2.548-1.301 3.618-.48Zm13.425-17.471c1.167.897 1.368 2.448.468 3.62-.9 1.17-2.451 1.376-3.618.48-1.168-.898-1.368-2.449-.468-3.62.9-1.171 2.548-1.302 3.618-.48Zm13.35-17.372c1.167.897 1.368 2.448.468 3.62-.9 1.17-2.451 1.376-3.618.48-1.167-.898-1.368-2.449-.468-3.62.9-1.171 2.548-1.302 3.618-.48Zm13.425-17.47c1.168.898 1.368 2.449.468 3.62-.9 1.17-2.451 1.377-3.618.48-1.167-.898-1.368-2.449-.468-3.62.9-1.171 2.548-1.302 3.618-.48Zm13.426-17.469c1.167.897 1.367 2.448.467 3.619-.9 1.171-2.45 1.377-3.618.48-1.167-.897-1.367-2.448-.467-3.62.825-1.073 2.547-1.302 3.618-.48ZM77.467 174.674c1.168.897 1.368 2.448.468 3.619-.9 1.171-2.45 1.377-3.618.48-1.167-.897-1.368-2.448-.468-3.619.9-1.172 2.45-1.377 3.618-.48Zm13.425-17.47c1.168.897 1.368 2.448.468 3.619-.9 1.172-2.45 1.377-3.618.48-1.167-.897-1.367-2.448-.467-3.619.825-1.074 2.45-1.377 3.617-.48Zm13.351-17.372c1.167.897 1.367 2.448.467 3.619-.9 1.172-2.45 1.377-3.617.48-1.168-.897-1.368-2.448-.468-3.619.9-1.171 2.45-1.377 3.618-.48Zm13.893-13.85a2.582 2.582 0 0 0-.468-3.62 2.58 2.58 0 0 0-3.618.48 2.58 2.58 0 0 0 .468 3.619 2.58 2.58 0 0 0 3.618-.479Zm12.957-21.089c1.167.897 1.368 2.448.468 3.619-.9 1.171-2.451 1.377-3.618.48-1.167-.897-1.368-2.448-.468-3.62.825-1.073 2.451-1.376 3.618-.479Zm13.425-17.47c1.168.897 1.368 2.448.468 3.62-.9 1.17-2.45 1.376-3.618.479-1.167-.897-1.367-2.448-.467-3.62.9-1.17 2.45-1.376 3.617-.48Zm13.351-17.373c1.167.898 1.367 2.449.467 3.62-.9 1.171-2.45 1.377-3.617.48-1.168-.897-1.368-2.448-.468-3.62.9-1.17 2.45-1.376 3.618-.48Zm13.893-13.85a2.581 2.581 0 0 0-.468-3.619 2.58 2.58 0 0 0-3.618.48 2.58 2.58 0 0 0 .468 3.62 2.58 2.58 0 0 0 3.618-.48Zm12.957-21.089c1.167.897 1.368 2.449.468 3.62-.9 1.17-2.451 1.377-3.618.48-1.167-.898-1.368-2.449-.468-3.62.825-1.074 2.451-1.377 3.618-.48ZM91.96 185.813c1.168.897 1.369 2.448.469 3.619-.9 1.171-2.45 1.377-3.618.48-1.168-.897-1.368-2.449-.468-3.62.9-1.171 2.45-1.376 3.618-.479Zm13.426-17.47c1.167.897 1.368 2.448.468 3.619-.9 1.171-2.451 1.377-3.618.48-1.167-.897-1.368-2.448-.468-3.619.825-1.074 2.451-1.377 3.618-.48Zm13.35-17.372c1.168.897 1.368 2.448.468 3.619-.9 1.171-2.451 1.377-3.618.48-1.167-.897-1.368-2.448-.468-3.62.9-1.171 2.451-1.376 3.618-.479Zm13.426-17.47c1.167.897 1.367 2.448.467 3.619-.9 1.172-2.45 1.377-3.617.48-1.168-.897-1.368-2.448-.468-3.619.9-1.171 2.45-1.377 3.618-.48Zm13.425-17.47c1.167.897 1.368 2.448.468 3.62-.9 1.171-2.451 1.376-3.618.479-1.167-.897-1.368-2.448-.468-3.619.825-1.074 2.451-1.377 3.618-.48Zm13.425-17.471c1.167.898 1.368 2.449.468 3.62-.9 1.171-2.451 1.377-3.618.48-1.167-.897-1.368-2.449-.468-3.62.9-1.17 2.451-1.376 3.618-.48Zm13.35-17.371c1.168.897 1.368 2.448.468 3.619-.9 1.171-2.451 1.377-3.618.48-1.167-.897-1.368-2.449-.468-3.62.9-1.17 2.451-1.377 3.618-.48Zm13.426-17.47c1.167.897 1.367 2.448.467 3.62-.9 1.17-2.45 1.376-3.618.479-1.167-.897-1.367-2.448-.467-3.62.9-1.17 2.45-1.376 3.618-.48Zm13.425-17.469c1.167.896 1.368 2.447.468 3.618-.9 1.172-2.451 1.377-3.618.48-1.168-.897-1.368-2.448-.468-3.62.825-1.073 2.451-1.376 3.618-.479Zm-92.856 150.626c1.168.897 1.368 2.448.468 3.619-.9 1.172-2.45 1.377-3.618.48-1.167-.897-1.367-2.448-.467-3.619.9-1.171 2.547-1.302 3.617-.48Zm13.426-17.47c1.167.897 1.367 2.448.467 3.62-.9 1.171-2.45 1.376-3.617.479-1.168-.897-1.368-2.448-.468-3.619.825-1.074 2.548-1.302 3.618-.48Zm13.35-17.372c1.167.897 1.367 2.448.467 3.62-.9 1.171-2.45 1.376-3.617.479-1.168-.897-1.368-2.448-.468-3.619.9-1.171 2.548-1.302 3.618-.48Zm13.425-17.47c1.167.898 1.368 2.449.468 3.62-.9 1.171-2.451 1.377-3.618.48-1.167-.897-1.368-2.449-.468-3.62.9-1.171 2.548-1.302 3.618-.48Zm13.425-17.47c1.168.897 1.368 2.448.468 3.619-.9 1.171-2.45 1.377-3.618.48-1.167-.897-1.367-2.448-.467-3.619.825-1.074 2.547-1.302 3.617-.48Zm13.426-17.47c1.167.897 1.367 2.448.467 3.619-.9 1.172-2.45 1.377-3.617.48-1.168-.897-1.368-2.448-.468-3.619.9-1.171 2.548-1.302 3.618-.48Zm13.35-17.372c1.167.897 1.367 2.448.467 3.62-.9 1.17-2.45 1.376-3.617.48-1.168-.898-1.368-2.45-.468-3.62.9-1.171 2.548-1.302 3.618-.48Zm13.425-17.47c1.167.897 1.368 2.449.468 3.62-.9 1.17-2.451 1.376-3.618.48-1.167-.898-1.368-2.449-.468-3.62.9-1.171 2.548-1.302 3.618-.48Zm13.425-17.469c1.168.897 1.368 2.448.468 3.619-.9 1.171-2.45 1.377-3.618.48-1.167-.897-1.367-2.449-.467-3.62.825-1.073 2.547-1.302 3.617-.48Z"/></g><defs><clipPath id="a"><path fill="#fff" transform="rotate(-52.458 123.466 60.831)" d="M0 0h181.184v132.739H0z"/></clipPath></defs></svg>