<svg width="287" height="287" fill="none" xmlns="http://www.w3.org/2000/svg"><g style="mix-blend-mode:multiply" opacity=".12" clip-path="url(#a)" fill="#FFCF2D"><path d="M143.598 0C64.215 0 0 64.216 0 143.598c0 79.186 64.216 143.599 143.598 143.599 79.186 0 143.599-64.216 143.599-143.599C287 64.215 222.784 0 143.598 0Zm0 277.939c-74.261 0-134.34-60.079-134.34-134.341 0-74.261 60.079-134.34 134.34-134.34 74.262 0 134.341 60.079 134.341 134.34 0 74.065-60.276 134.341-134.341 134.341Z"/><path d="M143.6 30.926c-62.05 0-112.476 50.427-112.476 112.475 0 62.049 50.427 112.476 112.476 112.476 62.048 0 112.475-50.23 112.475-112.279 0-62.245-50.427-112.672-112.475-112.672Zm0 207.814c-52.594 0-95.339-42.745-95.339-95.339 0-52.593 42.745-95.338 95.339-95.338 52.593 0 95.338 42.745 95.338 95.338 0 52.594-42.745 95.339-95.338 95.339Z"/></g><defs><clipPath id="a"><path fill="#fff" d="M0 0h287v287H0z"/></clipPath></defs></svg>