<svg width="18" height="22" fill="none" xmlns="http://www.w3.org/2000/svg"><path fill-rule="evenodd" clip-rule="evenodd" d="M9 6.75a2 2 0 1 0 0 4 2 2 0 0 0 0-4Zm-4 2a4 4 0 1 1 8 0 4 4 0 0 1-8 0Z" fill="#FF3F3A"/><path fill-rule="evenodd" clip-rule="evenodd" d="M9 2.25c-3.62 0-6.5 2.836-6.5 6.27 0 2.798 1.682 5.625 3.52 7.848A27.908 27.908 0 0 0 9 19.44a27.904 27.904 0 0 0 2.98-3.072c1.838-2.223 3.52-5.05 3.52-7.849 0-3.433-2.88-6.269-6.5-6.269Zm0 18.5-.62.785-.002-.002-.005-.004-.02-.016a12.636 12.636 0 0 1-.322-.267 29.909 29.909 0 0 1-3.552-3.604C2.568 15.333.5 12.043.5 8.52.5 3.923 4.335.25 9 .25s8.5 3.673 8.5 8.27c0 3.523-2.068 6.811-3.98 9.123a29.911 29.911 0 0 1-3.551 3.604 17.77 17.77 0 0 1-.322.266l-.02.016-.005.004-.002.002L9 20.75Zm0 0 .619.785a1 1 0 0 1-1.238 0L9 20.75Z" fill="#FF3F3A"/></svg>