<svg width="12" height="15" fill="none" xmlns="http://www.w3.org/2000/svg"><path fill-rule="evenodd" clip-rule="evenodd" d="M3.333 8.5c0-.368.299-.666.667-.666h4a.667.667 0 0 1 0 1.333H4a.667.667 0 0 1-.667-.666Zm0 2.5c0-.367.299-.666.667-.666h2a.667.667 0 0 1 0 1.333H4a.667.667 0 0 1-.667-.666Z" fill="#424551"/><path fill-rule="evenodd" clip-rule="evenodd" d="M4.029.53A.667.667 0 0 1 4.5.333H9A2.667 2.667 0 0 1 11.667 3v9A2.667 2.667 0 0 1 9 14.667H3a2.667 2.667 0 0 1-2.667-2.666V4.5c0-.177.07-.347.196-.472l3.5-3.5Zm.304 1.58v2.224H2.11L4.333 2.11ZM1.667 5.667v6.334c0 .736.597 1.333 1.333 1.333h6c.737 0 1.334-.597 1.334-1.333V3c0-.737-.597-1.334-1.334-1.334H5.667V5A.667.667 0 0 1 5 5.667H1.667Z" fill="#424551"/></svg>