<svg width="16" height="16" fill="none" xmlns="http://www.w3.org/2000/svg"><path d="M8 15.334c4.043 0 7.333-3.29 7.333-7.334a7.27 7.27 0 0 0-.29-2.044.61.61 0 1 0-1.173.343A6.118 6.118 0 0 1 8 14.111a6.118 6.118 0 0 1-6.111-6.11 6.118 6.118 0 0 1 6.11-6.112 6.07 6.07 0 0 1 3.408 1.035.611.611 0 0 0 .683-1.013A7.288 7.288 0 0 0 8 .667C3.956.667.667 3.957.667 8c0 4.044 3.29 7.334 7.333 7.334Z" fill="#FF3F3A"/><path d="M14.862 1.529 8 8.39 5.804 6.196a.667.667 0 0 0-.942.942l2.666 2.667a.664.664 0 0 0 .943 0l7.333-7.333a.667.667 0 0 0-.942-.943Z" fill="#FF3F3A"/></svg>