<svg width="187" height="137" fill="none" xmlns="http://www.w3.org/2000/svg"><path d="M5.336 40.264c0 1.52-1.144 2.66-2.668 2.66-1.525 0-2.668-1.14-2.668-2.66 0-1.519 1.143-2.659 2.668-2.659 1.524 0 2.668 1.267 2.668 2.66Zm22.739 0c0 1.52-1.143 2.66-2.668 2.66-1.524 0-2.667-1.14-2.667-2.66 0-1.519 1.143-2.659 2.668-2.659 1.397 0 2.667 1.267 2.667 2.66Zm22.613 0c0 1.52-1.143 2.66-2.668 2.66-1.524 0-2.668-1.14-2.668-2.66 0-1.519 1.144-2.659 2.668-2.659 1.525 0 2.668 1.267 2.668 2.66Zm22.74 0c0 1.52-1.144 2.66-2.668 2.66-1.524 0-2.668-1.14-2.668-2.66 0-1.519 1.144-2.659 2.668-2.659 1.524 0 2.668 1.267 2.668 2.66Zm22.74 0c0 1.52-1.144 2.66-2.668 2.66-1.525 0-2.668-1.14-2.668-2.66 0-1.519 1.143-2.659 2.668-2.659 1.397 0 2.668 1.267 2.668 2.66Zm22.74 0c0 1.52-1.143 2.66-2.668 2.66-1.524 0-2.668-1.14-2.668-2.66 0-1.519 1.144-2.659 2.668-2.659 1.525 0 2.668 1.267 2.668 2.66Zm22.612 0c0 1.52-1.143 2.66-2.668 2.66-1.524 0-2.667-1.14-2.667-2.66 0-1.519 1.143-2.659 2.667-2.659 1.525 0 2.668 1.267 2.668 2.66Zm22.74 0c0 1.52-1.143 2.66-2.668 2.66-1.524 0-2.668-1.14-2.668-2.66 0-1.519 1.144-2.659 2.668-2.659 1.525 0 2.668 1.267 2.668 2.66Zm22.74 0c0 1.52-1.143 2.66-2.668 2.66-1.524 0-2.667-1.14-2.667-2.66 0-1.519 1.143-2.659 2.667-2.659 1.398 0 2.668 1.267 2.668 2.66ZM5.336 59.13c0 1.52-1.144 2.66-2.668 2.66C1.143 61.79 0 60.65 0 59.13c0-1.519 1.143-2.658 2.668-2.658 1.524 0 2.668 1.14 2.668 2.659Zm22.739 0c0 1.52-1.143 2.66-2.668 2.66-1.524 0-2.667-1.14-2.667-2.66 0-1.519 1.143-2.658 2.668-2.658 1.397 0 2.667 1.14 2.667 2.659Zm22.613 0c0 1.52-1.143 2.66-2.668 2.66-1.524 0-2.668-1.14-2.668-2.66 0-1.519 1.144-2.658 2.668-2.658 1.525 0 2.668 1.14 2.668 2.659Zm22.74 0c0 1.52-1.144 2.66-2.668 2.66-1.524 0-2.668-1.14-2.668-2.66 0-1.519 1.144-2.658 2.668-2.658 1.524 0 2.668 1.14 2.668 2.659Zm22.74 0c0 1.52-1.144 2.66-2.668 2.66-1.525 0-2.668-1.14-2.668-2.66 0-1.519 1.143-2.658 2.668-2.658 1.397 0 2.668 1.14 2.668 2.659Zm22.74 0c0 1.52-1.143 2.66-2.668 2.66-1.524 0-2.668-1.14-2.668-2.66 0-1.519 1.144-2.658 2.668-2.658 1.525 0 2.668 1.14 2.668 2.659Zm22.612 0c0 1.52-1.143 2.66-2.668 2.66-1.524 0-2.667-1.14-2.667-2.66 0-1.519 1.143-2.658 2.667-2.658 1.525 0 2.668 1.14 2.668 2.659Zm22.74 0c0 1.52-1.143 2.66-2.668 2.66-1.524 0-2.668-1.14-2.668-2.66 0-1.519 1.144-2.658 2.668-2.658 1.525 0 2.668 1.14 2.668 2.659Zm22.74 0c0 1.52-1.143 2.66-2.668 2.66-1.524 0-2.667-1.14-2.667-2.66 0-1.519 1.143-2.658 2.667-2.658 1.398 0 2.668 1.14 2.668 2.659ZM5.336 2.659c0 1.52-1.144 2.659-2.668 2.659C1.143 5.318 0 4.178 0 2.659 0 1.139 1.143 0 2.668 0c1.524 0 2.668 1.14 2.668 2.659Zm22.739 0c0 1.52-1.143 2.659-2.668 2.659-1.524 0-2.667-1.14-2.667-2.659C22.74 1.139 23.883 0 25.408 0c1.397 0 2.667 1.14 2.667 2.659Zm22.613 0c0 1.52-1.143 2.659-2.668 2.659-1.524 0-2.668-1.14-2.668-2.659 0-1.52 1.27-2.659 2.668-2.659 1.525 0 2.668 1.14 2.668 2.659Zm22.74 0c0 1.52-1.144 2.659-2.668 2.659-1.524 0-2.668-1.14-2.668-2.659 0-1.52 1.27-2.659 2.668-2.659 1.397 0 2.668 1.14 2.668 2.659Zm22.74 0c0 1.52-1.144 2.659-2.668 2.659-1.525 0-2.668-1.14-2.668-2.659C90.832 1.139 91.975 0 93.5 0c1.397 0 2.668 1.14 2.668 2.659Zm22.74 0c0 1.52-1.143 2.659-2.668 2.659-1.524 0-2.668-1.14-2.668-2.659 0-1.52 1.144-2.659 2.668-2.659 1.525 0 2.668 1.14 2.668 2.659Zm22.612 0c0 1.52-1.143 2.659-2.668 2.659-1.524 0-2.667-1.14-2.667-2.659 0-1.52 1.143-2.659 2.667-2.659 1.525 0 2.668 1.14 2.668 2.659Zm22.74 0c0 1.52-1.143 2.659-2.668 2.659-1.524 0-2.668-1.14-2.668-2.659 0-1.52 1.144-2.659 2.668-2.659 1.525 0 2.668 1.14 2.668 2.659Zm22.74 0c0 1.52-1.143 2.659-2.668 2.659-1.524 0-2.667-1.14-2.667-2.659 0-1.52 1.143-2.659 2.667-2.659C185.73 0 187 1.14 187 2.659ZM5.336 21.525c0 1.52-1.144 2.66-2.668 2.66-1.525 0-2.668-1.267-2.668-2.66 0-1.52 1.143-2.659 2.668-2.659 1.524 0 2.668 1.14 2.668 2.66Zm22.739 0c0 1.52-1.143 2.66-2.668 2.66-1.524 0-2.667-1.14-2.667-2.66 0-1.52 1.143-2.659 2.668-2.659 1.397 0 2.667 1.14 2.667 2.66Zm22.613 0c0 1.52-1.143 2.66-2.668 2.66-1.524 0-2.668-1.14-2.668-2.66 0-1.52 1.144-2.659 2.668-2.659 1.525 0 2.668 1.14 2.668 2.66Zm22.74 0c0 1.52-1.144 2.66-2.668 2.66-1.524 0-2.668-1.14-2.668-2.66 0-1.52 1.144-2.659 2.668-2.659 1.524 0 2.668 1.14 2.668 2.66Zm22.74 0c0 1.52-1.144 2.66-2.668 2.66-1.525 0-2.668-1.14-2.668-2.66 0-1.52 1.143-2.659 2.668-2.659 1.397 0 2.668 1.14 2.668 2.66Zm22.74 0c0 1.52-1.143 2.66-2.668 2.66-1.524 0-2.668-1.14-2.668-2.66 0-1.52 1.144-2.659 2.668-2.659 1.525 0 2.668 1.14 2.668 2.66Zm22.612 0c0 1.52-1.143 2.66-2.668 2.66-1.524 0-2.667-1.14-2.667-2.66 0-1.52 1.143-2.659 2.667-2.659 1.525 0 2.668 1.14 2.668 2.66Zm22.74 0c0 1.52-1.143 2.66-2.668 2.66-1.524 0-2.668-1.14-2.668-2.66 0-1.52 1.144-2.659 2.668-2.659 1.525 0 2.668 1.14 2.668 2.66Zm22.74 0c0 1.52-1.143 2.66-2.668 2.66-1.524 0-2.667-1.14-2.667-2.66 0-1.52 1.143-2.659 2.667-2.659 1.398 0 2.668 1.14 2.668 2.66ZM5.336 77.87c0 1.52-1.144 2.659-2.668 2.659-1.525 0-2.668-1.14-2.668-2.66 0-1.519 1.143-2.658 2.668-2.658 1.524 0 2.668 1.266 2.668 2.659Zm22.739 0c0 1.52-1.143 2.659-2.668 2.659-1.524 0-2.667-1.14-2.667-2.66 0-1.519 1.143-2.658 2.668-2.658 1.397 0 2.667 1.266 2.667 2.659Zm22.613 0c0 1.52-1.143 2.659-2.668 2.659-1.524 0-2.668-1.14-2.668-2.66 0-1.519 1.144-2.658 2.668-2.658 1.525 0 2.668 1.266 2.668 2.659Zm22.74 0c0 1.52-1.144 2.659-2.668 2.659-1.524 0-2.668-1.14-2.668-2.66 0-1.519 1.144-2.658 2.668-2.658 1.524 0 2.668 1.266 2.668 2.659Zm22.74 0c0 1.52-1.144 2.659-2.668 2.659-1.525 0-2.668-1.14-2.668-2.66 0-1.519 1.143-2.658 2.668-2.658 1.397 0 2.668 1.266 2.668 2.659Zm22.74 0c0 1.52-1.143 2.659-2.668 2.659-1.524 0-2.668-1.14-2.668-2.66 0-1.519 1.144-2.658 2.668-2.658 1.525 0 2.668 1.266 2.668 2.659Zm22.612 0c0 1.52-1.143 2.659-2.668 2.659-1.524 0-2.667-1.14-2.667-2.66 0-1.519 1.143-2.658 2.667-2.658 1.525 0 2.668 1.266 2.668 2.659Zm22.74 0c0 1.52-1.143 2.659-2.668 2.659-1.524 0-2.668-1.14-2.668-2.66 0-1.519 1.144-2.658 2.668-2.658 1.525 0 2.668 1.266 2.668 2.659Zm22.74 0c0 1.52-1.143 2.659-2.668 2.659-1.524 0-2.667-1.14-2.667-2.66 0-1.519 1.143-2.658 2.667-2.658 1.398 0 2.668 1.266 2.668 2.659ZM5.336 96.736c0 1.52-1.144 2.66-2.668 2.66-1.525 0-2.668-1.14-2.668-2.66 0-1.52 1.143-2.659 2.668-2.659 1.524 0 2.668 1.14 2.668 2.66Zm22.739 0c0 1.52-1.143 2.66-2.668 2.66-1.524 0-2.667-1.14-2.667-2.66 0-1.52 1.143-2.659 2.668-2.659 1.397 0 2.667 1.14 2.667 2.66Zm22.613 0c0 1.52-1.143 2.66-2.668 2.66-1.524 0-2.668-1.14-2.668-2.66 0-1.52 1.144-2.659 2.668-2.659 1.525 0 2.668 1.14 2.668 2.66Zm20.072 2.659a2.663 2.663 0 0 0 2.668-2.659 2.663 2.663 0 0 0-2.668-2.659 2.663 2.663 0 0 0-2.668 2.66 2.663 2.663 0 0 0 2.668 2.658Zm25.408-2.659c0 1.52-1.144 2.66-2.668 2.66-1.525 0-2.668-1.14-2.668-2.66 0-1.52 1.143-2.659 2.668-2.659 1.397 0 2.668 1.14 2.668 2.66Zm22.74 0c0 1.52-1.143 2.66-2.668 2.66-1.524 0-2.668-1.14-2.668-2.66 0-1.52 1.144-2.659 2.668-2.659 1.525 0 2.668 1.14 2.668 2.66Zm22.612 0c0 1.52-1.143 2.66-2.668 2.66-1.524 0-2.667-1.14-2.667-2.66 0-1.52 1.143-2.659 2.667-2.659 1.525 0 2.668 1.14 2.668 2.66Zm20.072 2.659a2.664 2.664 0 0 0 2.668-2.659 2.664 2.664 0 0 0-2.668-2.659 2.664 2.664 0 0 0-2.668 2.66 2.664 2.664 0 0 0 2.668 2.658ZM187 96.736c0 1.52-1.143 2.66-2.668 2.66-1.524 0-2.667-1.14-2.667-2.66 0-1.52 1.143-2.659 2.667-2.659 1.398 0 2.668 1.14 2.668 2.66ZM5.336 115.601c0 1.52-1.144 2.659-2.668 2.659-1.525 0-2.668-1.139-2.668-2.659 0-1.519 1.143-2.659 2.668-2.659 1.524 0 2.668 1.14 2.668 2.659Zm22.739 0c0 1.52-1.143 2.659-2.668 2.659-1.524 0-2.667-1.139-2.667-2.659 0-1.519 1.143-2.659 2.668-2.659 1.397 0 2.667 1.14 2.667 2.659Zm22.613 0c0 1.52-1.143 2.659-2.668 2.659-1.524 0-2.668-1.139-2.668-2.659 0-1.519 1.144-2.659 2.668-2.659 1.525 0 2.668 1.14 2.668 2.659Zm22.74 0c0 1.52-1.144 2.659-2.668 2.659-1.524 0-2.668-1.139-2.668-2.659 0-1.519 1.144-2.659 2.668-2.659 1.524 0 2.668 1.14 2.668 2.659Zm22.74 0c0 1.52-1.144 2.659-2.668 2.659-1.525 0-2.668-1.139-2.668-2.659 0-1.519 1.143-2.659 2.668-2.659 1.397 0 2.668 1.14 2.668 2.659Zm22.74 0c0 1.52-1.143 2.659-2.668 2.659-1.524 0-2.668-1.139-2.668-2.659 0-1.519 1.144-2.659 2.668-2.659 1.525 0 2.668 1.14 2.668 2.659Zm22.612 0c0 1.52-1.143 2.659-2.668 2.659-1.524 0-2.667-1.139-2.667-2.659 0-1.519 1.143-2.659 2.667-2.659 1.525 0 2.668 1.14 2.668 2.659Zm22.74 0c0 1.52-1.143 2.659-2.668 2.659-1.524 0-2.668-1.139-2.668-2.659 0-1.519 1.144-2.659 2.668-2.659 1.525 0 2.668 1.14 2.668 2.659Zm22.74 0c0 1.52-1.143 2.659-2.668 2.659-1.524 0-2.667-1.139-2.667-2.659 0-1.519 1.143-2.659 2.667-2.659 1.398 0 2.668 1.14 2.668 2.659ZM5.336 134.341c0 1.519-1.144 2.659-2.668 2.659C1.143 137 0 135.86 0 134.341c0-1.52 1.143-2.659 2.668-2.659 1.524 0 2.668 1.266 2.668 2.659Zm22.739 0c0 1.519-1.143 2.659-2.668 2.659-1.524 0-2.667-1.14-2.667-2.659 0-1.52 1.143-2.659 2.668-2.659 1.397 0 2.667 1.266 2.667 2.659Zm22.613 0c0 1.519-1.143 2.659-2.668 2.659-1.524 0-2.668-1.14-2.668-2.659 0-1.52 1.144-2.659 2.668-2.659 1.525 0 2.668 1.266 2.668 2.659Zm22.74 0c0 1.519-1.144 2.659-2.668 2.659-1.524 0-2.668-1.14-2.668-2.659 0-1.52 1.144-2.659 2.668-2.659 1.524 0 2.668 1.266 2.668 2.659Zm22.74 0c0 1.519-1.144 2.659-2.668 2.659-1.525 0-2.668-1.14-2.668-2.659 0-1.52 1.143-2.659 2.668-2.659 1.397 0 2.668 1.266 2.668 2.659Zm22.74 0c0 1.519-1.143 2.659-2.668 2.659-1.524 0-2.668-1.14-2.668-2.659 0-1.52 1.144-2.659 2.668-2.659 1.525 0 2.668 1.266 2.668 2.659Zm22.612 0c0 1.519-1.143 2.659-2.668 2.659-1.524 0-2.667-1.14-2.667-2.659 0-1.52 1.143-2.659 2.667-2.659 1.525 0 2.668 1.266 2.668 2.659Zm22.74 0c0 1.519-1.143 2.659-2.668 2.659-1.524 0-2.668-1.14-2.668-2.659 0-1.52 1.144-2.659 2.668-2.659 1.525 0 2.668 1.266 2.668 2.659Zm22.74 0c0 1.519-1.143 2.659-2.668 2.659-1.524 0-2.667-1.14-2.667-2.659 0-1.52 1.143-2.659 2.667-2.659 1.398 0 2.668 1.266 2.668 2.659Z" opacity=".8" fill="#fff"/></svg>