<svg width="14" height="16" fill="none" xmlns="http://www.w3.org/2000/svg"><path fill-rule="evenodd" clip-rule="evenodd" d="M7 2.166a2.333 2.333 0 1 0 0 4.667 2.333 2.333 0 0 0 0-4.667ZM3.333 4.5a3.667 3.667 0 1 1 7.334 0 3.667 3.667 0 0 1-7.334 0Zm-.263 5.666c-.463 0-.824.225-.97.549-.204.447-.387.98-.43 1.486-.02.225.074.392.204.473C2.56 13.1 4.15 13.833 7 13.833c2.85 0 4.44-.733 5.126-1.16.13-.08.224-.247.205-.473-.043-.505-.227-1.038-.43-1.485-.147-.324-.508-.549-.97-.549H3.069Zm-2.185-.002c.405-.894 1.31-1.331 2.184-1.331h7.862c.874 0 1.779.437 2.184 1.331.233.513.483 1.203.544 1.922.057.655-.216 1.339-.829 1.72-.902.56-2.737 1.36-5.83 1.36s-4.927-.8-5.83-1.36c-.613-.381-.885-1.065-.83-1.72.062-.719.312-1.409.545-1.922Z" fill="#FF3F3A"/></svg>