<svg width="16" height="15" fill="none" xmlns="http://www.w3.org/2000/svg"><path fill-rule="evenodd" clip-rule="evenodd" d="M6.78 1.468C7.243.4 8.757.4 9.22 1.468L10.623 4.7l3.505.334c1.16.11 1.627 1.551.755 2.322l-2.64 2.33.766 3.438c.253 1.136-.973 2.027-1.975 1.435L8 12.768l-3.033 1.79c-1.002.592-2.227-.299-1.974-1.435l.765-3.437-2.64-2.331c-.872-.77-.404-2.211.755-2.322L5.378 4.7 6.78 1.47Zm2.62 3.76L8 1.998l-1.402 3.23a1.33 1.33 0 0 1-1.094.795l-3.506.334 2.64 2.331c.363.321.523.814.418 1.287l-.766 3.437 3.033-1.79a1.33 1.33 0 0 1 1.352 0l3.033 1.79-.766-3.437a1.33 1.33 0 0 1 .418-1.287L14 6.358l-3.505-.335A1.33 1.33 0 0 1 9.4 5.228Z" fill="#FF3F3A"/></svg>