<svg width="145" height="145" fill="none" xmlns="http://www.w3.org/2000/svg"><g opacity=".6" clip-path="url(#a)" fill="#fff"><path d="M72.55 0C32.443 0 0 32.443 0 72.55c0 40.007 32.443 72.55 72.55 72.55 40.007 0 72.55-32.444 72.55-72.55C145 32.443 112.557 0 72.55 0Zm0 140.422c-37.52 0-67.873-30.353-67.873-67.872 0-37.52 30.354-67.873 67.873-67.873 37.519 0 67.872 30.354 67.872 67.873 0 37.419-30.453 67.872-67.872 67.872Z"/><path d="M72.55 15.625c-31.349 0-56.826 25.477-56.826 56.826 0 31.348 25.477 56.825 56.826 56.825 31.348 0 56.825-25.377 56.825-56.726 0-31.448-25.477-56.925-56.825-56.925Zm0 104.993c-26.572 0-48.168-21.596-48.168-48.167 0-26.572 21.596-48.168 48.168-48.168s48.167 21.596 48.167 48.168c0 26.571-21.596 48.167-48.167 48.167Z"/><path d="M72.55 40.603c-17.615 0-31.945 14.331-31.945 31.946 0 17.615 14.23 31.946 31.945 31.946 17.615 0 31.946-14.33 31.946-31.946-.099-17.615-14.33-31.946-31.946-31.946Zm0 49.064c-9.454 0-17.117-7.663-17.117-17.118 0-9.454 7.663-17.117 17.117-17.117 9.455 0 17.118 7.663 17.118 17.117 0 9.455-7.663 17.118-17.118 17.118Z"/></g><defs><clipPath id="a"><path fill="#fff" d="M0 0h145v145H0z"/></clipPath></defs></svg>