<svg width="354" height="246" fill="none" xmlns="http://www.w3.org/2000/svg"><g clip-path="url(#a)"><path d="M337.003 211.79v34.211h-51.468l10.028-52.534c-.321 2.074 6.098 5.962 14.882 9.862a140.726 140.726 0 0 0 10.422 4.106c6.056 2.136 11.635 3.588 16.136 4.355-.01 0 0 0 0 0Z" fill="#9A3B82"/><path d="M337.003 201.503v9.156c-4.501-.767-10.07-2.208-16.147-4.345-14.321-5.029-25.345-11.241-24.723-14.03.011-.042.021-.083.032-.114.964-2.727 13.647-.84 28.165 4.252 4.667 1.638 8.878 3.328 12.414 4.956.083.042.166.083.259.125Z" fill="#FFCF2D"/><path d="M329.94 122.236c-5.019 0-9.084 4.065-9.084 9.074v24.867c0 5.009-4.066 9.074-9.074 9.074h-36.38a9.07 9.07 0 0 0 9.074-9.074V131.31a9.071 9.071 0 0 1 9.074-9.074h36.39Z" fill="#fff"/><path fill-rule="evenodd" clip-rule="evenodd" d="M293.55 122.495a8.811 8.811 0 0 0-8.814 8.814v24.867a9.336 9.336 0 0 1-6.256 8.815h33.302c4.865 0 8.814-3.949 8.814-8.815v-24.867c0-4.075 2.617-7.543 6.265-8.814H293.55Zm36.39-.518h-36.39a9.33 9.33 0 0 0-9.333 9.332v24.867a8.812 8.812 0 0 1-8.815 8.815v.518h36.38c5.152 0 9.333-4.181 9.333-9.333v-24.867c0-4.865 3.949-8.814 8.825-8.814v-.518Z" fill="#FFCF2D"/><path d="M314.032 135.105h-23.167v21.497h23.167v-21.497Z" fill="#fff"/><path fill-rule="evenodd" clip-rule="evenodd" d="M290.605 134.846h23.686v22.015h-23.686v-22.015Zm.519.518v20.978h22.649v-20.978h-22.649Z" fill="#FFCF2D"/><path fill-rule="evenodd" clip-rule="evenodd" d="M290.865 137.916h23.157v.519h-23.157v-.519Zm0 3.068h23.157v.519h-23.157v-.519Zm0 3.08h23.157v.519h-23.157v-.519Zm0 3.071h23.157v.518h-23.157v-.518Zm0 3.08h23.157v.518h-23.157v-.518Zm0 3.068h23.157v.519h-23.157v-.519Z" fill="#FFCF2D"/><path d="M320.856 131.31c0-4.988 4.024-9.032 8.992-9.074a9.067 9.067 0 0 1 8.991 9.074h-17.983Z" fill="#66B0F0"/><path fill-rule="evenodd" clip-rule="evenodd" d="M329.848 121.977h.002c5.12.042 9.248 4.202 9.248 9.332v.26h-18.501v-.26c0-5.13 4.139-9.29 9.248-9.332h.003Zm0 .518c-4.738.041-8.592 3.83-8.729 8.555h17.457a8.807 8.807 0 0 0-8.728-8.555Z" fill="#FFCF2D"/><path d="M311.824 165.479h-36.348c-3.723-.052-6.907-2.354-8.255-5.61h36.317a9.11 9.11 0 0 0 8.286 5.61Z" fill="#FFCF2D"/><path d="M292.38 132.635h-4.19v-3.36h1.97v1.867c0 .041.021.073.042.083l.01.01 2.168 1.4Z" fill="#FE5244"/><path d="M294.007 130.438v.446c0 .083-.01.166-.01.249 0 .021-.01.052-.01.072-.011.042-.011.083-.021.125-.114.57-.456 1.037-.882 1.213l-.093.031c-.052.021-.114.031-.166.042-.021 0-.041.01-.062.01l-2.375-1.545c.021-.363.249-.653.519-.653h3.1v.01Zm23.137-1.163v3.36h-4.189l2.157-1.4.01-.01c.01-.01.01-.01.021-.01 0-.011.01-.011.01-.021 0 0 0-.011.01-.011 0-.01 0-.01.011-.01v-1.898h1.97Z" fill="#FE5244"/><path d="m314.965 131.092-2.374 1.546-.187-.032c-.021-.01-.041-.01-.062-.02-.031-.011-.052-.021-.083-.031-.021-.011-.052-.021-.073-.032-.321-.176-.591-.518-.726-.943-.02-.062-.041-.125-.052-.187-.01-.021-.01-.052-.02-.083-.021-.135-.042-.269-.042-.415v-.446h3.111c.26-.01.488.28.508.643Z" fill="#FE5244"/><path d="M314.966 127.576v2.925c-.02-.021-.041-.052-.062-.073a1.14 1.14 0 0 0-.124-.104.66.66 0 0 0-.332-.103h-23.551a.599.599 0 0 0-.332.103 1.14 1.14 0 0 0-.124.104c-.021.021-.042.041-.063.073v-2.925c0-.394.229-.705.519-.705h23.551c.28 0 .518.322.518.705Z" fill="#FE5244"/><path d="M337.003 170.011v40.649h-.01c-4.501-.767-10.07-2.208-16.147-4.345a144.804 144.804 0 0 1-10.422-4.106l1.69-9.437 2.873-16.021c-9.012-2.821-10.474-11.49-10.474-11.49h7.249a9.07 9.07 0 0 0 9.074-9.073v-2.987h-4.657c-3.266 0-5.921-3.215-5.921-6.481v-1.058h10.35c1.918 0 3.722.902 4.874 2.437l7.57 10.111a19.542 19.542 0 0 1 3.951 11.801Z" fill="#A0505A"/><path d="M337.003 201.503v9.157h-.01c-4.501-.768-10.07-2.209-16.147-4.345a144.791 144.791 0 0 1-10.422-4.107l1.69-9.437c3.734.913 7.882 2.147 12.196 3.661 4.666 1.638 8.877 3.329 12.403 4.957.114.031.197.072.29.114Z" fill="#73325A"/><path d="M321.313 153.201h-4.999c-3.267 0-5.921-3.215-5.921-6.481v-1.058h10.92v7.539Z" fill="#A0505A"/><path fill-rule="evenodd" clip-rule="evenodd" d="m318.08 163.544.091-.243.091-.242h.002l.005.002.018.007.065.027a10.396 10.396 0 0 1 1.086.55c.7.408 1.64 1.049 2.599 1.987 1.923 1.877 3.922 4.937 4.253 9.659l-.517.037c-.322-4.58-2.254-7.524-4.098-9.325a12.92 12.92 0 0 0-2.498-1.91 9.992 9.992 0 0 0-1.025-.52l-.056-.023-.013-.005-.003-.001Zm0 0Zm1.833 13.683h-4.906v-.518h4.906v.518Z" fill="#73325A"/><path fill-rule="evenodd" clip-rule="evenodd" d="M323.833 63.63c-.385-4.876-5.855-7.546-9.94-4.846l-3.287 2.178-.344-.52 3.288-2.177c4.48-2.962 10.481-.032 10.904 5.316l.715 9.053c.376 4.738 5.589 7.438 9.674 5.015l2.073-1.234.319.534-2.075 1.235c-4.481 2.658-10.199-.304-10.611-5.5l-.716-9.054Z" fill="#FFCF2D"/><path d="m262.657 27.072 42.239 24.515 21.269 47.753-24.401-16.436-26.517-31.068-12.59-24.764Z" fill="#9A3B82"/><path fill-rule="evenodd" clip-rule="evenodd" d="m305.659 50.685-43.043-24.993.312-.538 43.217 25.094L327.912 99.1l-.568.253-21.685-48.667Z" fill="#FFCF2D"/><path d="M301.324 83.958c1.973-1.666-2.462-10.165-9.907-18.983-7.445-8.818-15.08-14.615-17.054-12.949-1.973 1.666 2.462 10.165 9.907 18.983 7.445 8.818 15.08 14.615 17.054 12.95Z" fill="#fff"/><path d="M300.124 84.467c1.934-1.633-2.416-9.967-9.717-18.614s-14.787-14.333-16.721-12.7c-1.935 1.633 2.416 9.966 9.716 18.613 7.301 8.648 14.788 14.334 16.722 12.7Z" fill="#fff"/><path fill-rule="evenodd" clip-rule="evenodd" d="M275.31 59.71c1.747 3.348 4.648 7.577 8.29 11.89 3.642 4.314 7.325 7.883 10.332 10.167 1.505 1.143 2.829 1.955 3.886 2.381.529.214.978.325 1.342.339.361.014.619-.067.796-.217.178-.15.301-.39.348-.749.047-.36.012-.822-.109-1.379-.243-1.113-.822-2.555-1.696-4.23-1.748-3.348-4.648-7.577-8.29-11.89-3.642-4.314-7.325-7.883-10.332-10.166-1.505-1.144-2.83-1.956-3.887-2.382-.528-.213-.977-.324-1.341-.339-.361-.014-.619.067-.797.217-.177.15-.301.39-.347.75-.047.36-.012.821.109 1.378.243 1.114.822 2.555 1.696 4.23Zm-2.319-5.675c.057-.443.221-.82.527-1.079.306-.258.705-.357 1.152-.339.445.018.955.15 1.514.376 1.119.451 2.485 1.295 4.006 2.45 3.046 2.313 6.756 5.91 10.415 10.244 3.659 4.334 6.584 8.595 8.353 11.985.884 1.693 1.486 3.181 1.743 4.36.129.589.174 1.114.117 1.556-.057.443-.221.82-.527 1.078-.306.259-.705.357-1.152.34-.445-.019-.955-.151-1.514-.377-1.119-.45-2.486-1.294-4.007-2.45-3.045-2.312-6.755-5.91-10.414-10.244-3.659-4.333-6.584-8.595-8.353-11.984-.884-1.693-1.487-3.182-1.744-4.36-.128-.59-.173-1.115-.116-1.556Z" fill="#FFCF2D"/><path d="m305.27 80.602-4.024 3.391c.747-.632.581-2.23-.321-4.459-1.483-3.67-4.957-9.032-9.583-14.528-4.635-5.486-9.343-9.81-12.714-11.884-2.043-1.265-3.598-1.7-4.345-1.068l4.024-3.39c1.97-1.67 9.955 3.784 17.401 12.609s11.543 17.67 9.562 19.33Zm42.985-12.973a41.74 41.74 0 0 1 3.318-1.442 9.194 9.194 0 0 1 1.607 2.313c.426.871.695 1.784.82 2.686a45.344 45.344 0 0 1-3.184 1.71c-5.673 2.749-10.837 3.796-11.542 2.344-.716-1.462 3.308-4.863 8.981-7.611Z" fill="#FFCF2D"/><path fill-rule="evenodd" clip-rule="evenodd" d="M338.237 75.01a.943.943 0 1 0 0 1.887.943.943 0 0 0 0-1.886Zm-1.566.944a1.566 1.566 0 1 1 3.132 0 1.566 1.566 0 0 1-3.132 0Z" fill="#9A3B82"/><path d="M264.182 202.095v43.906h-50.016l6.409-47.681c0 1.929 9.758 4.335 21.798 5.372 12.04 1.047 21.809.332 21.809-1.597Z" fill="#66B0F0"/><path d="M263.954 200.965c0 1.929-9.675 2.644-21.601 1.597-11.926-1.047-21.602-3.453-21.602-5.372 0-1.928 9.676-2.644 21.602-1.596 11.936 1.037 21.601 3.442 21.601 5.371Z" fill="#3FB1B5"/><path fill-rule="evenodd" clip-rule="evenodd" d="m273.739 105.846-3.017-1.953.338-.522 3.04 1.967.01.008c.882.683 1.185 1.913 1.088 3.422-.098 1.523-.607 3.416-1.459 5.547-1.706 4.264-4.819 9.547-8.928 14.841-4.109 5.3-8.451 9.629-12.156 12.343-1.851 1.355-3.558 2.319-5.009 2.793-1.438.47-2.705.483-3.587-.199l-.012-.01-1.504-1.421.427-.452 1.482 1.399c.633.482 1.635.538 3.001.091 1.362-.445 3.009-1.367 4.834-2.703 3.647-2.671 7.949-6.955 12.033-12.222 4.083-5.262 7.162-10.494 8.841-14.691.841-2.101 1.324-3.925 1.416-5.355.092-1.436-.212-2.391-.838-2.883Z" fill="#66B0F0"/><path d="m228.84 152.827 34.378-31.462 12.019-36.596-36.69 33.34-9.707 34.718Z" fill="#66B0F0"/><path fill-rule="evenodd" clip-rule="evenodd" d="M276.806 84.932a.311.311 0 0 1 .199.392l-12.232 37.254-37.476 34.296a.311.311 0 1 1-.42-.459l37.356-34.186 12.181-37.099a.31.31 0 0 1 .392-.198Zm-62.793 67.329 32.646-31.224.43.45-32.646 31.223v.001c-1.807 1.724-4.761.094-4.253-2.362l.912-4.428c.357-1.723-1.598-2.982-3.017-1.947v.001l-10.785 7.85-.366-.503 10.785-7.85m3.993 2.575c.472-2.28-2.114-3.946-3.993-2.575l3.993 2.575Zm0 0-.913 4.427v.001c-.384 1.857 1.847 3.089 3.214 1.786" fill="#FE5244"/><path d="M188.333 162.751a41.666 41.666 0 0 1-2.862 2.209 9.007 9.007 0 0 1-3.578-4.252 45.098 45.098 0 0 1 2.665-2.447c4.822-4.055 9.572-6.346 10.619-5.102 1.038 1.244-2.022 5.538-6.844 9.592Z" fill="#FFCF2D"/><path fill-rule="evenodd" clip-rule="evenodd" d="M196.111 151.386a.943.943 0 1 0 0 1.886.943.943 0 0 0 0-1.886Zm-1.566.944a1.566 1.566 0 1 1 3.133.001 1.566 1.566 0 0 1-3.133-.001Z" fill="#FE5244"/><path d="M248.419 169.046v33.909a134.319 134.319 0 0 1-6.066-.394c-7.768-.674-14.571-1.939-18.376-3.266l.57-3.754 1.908-12.6h-2.468a6.35 6.35 0 0 1-6.357-6.356v-12.486c0-2.468.892-4.842 2.52-6.699l8.12-9.281c.529-.601 1.524-.228 1.524.571v12.62a6.343 6.343 0 0 1-1.524 4.127l-.726.85h8.815c1.275 0 2.022-1.42 1.306-2.478a63.125 63.125 0 0 1-3.878-6.461c-2.707-5.174 1.991-8.067 1.991-8.067l10.754 13.947a9.937 9.937 0 0 1 1.887 5.818Z" fill="#FFCF2D"/><path fill-rule="evenodd" clip-rule="evenodd" d="M229.795 147.756a.26.26 0 0 1 .259.259v13.294a6.603 6.603 0 0 1-1.586 4.296h-.001m0 0-.725.85a.26.26 0 0 1-.395-.336l.726-.851a6.083 6.083 0 0 0 1.463-3.959v-13.294a.26.26 0 0 1 .259-.259" fill="#fff"/><path fill-rule="evenodd" clip-rule="evenodd" d="M227.716 166.083a.26.26 0 0 1 .021.366l-5.828 6.544a.26.26 0 0 1-.387-.345l5.828-6.544a.26.26 0 0 1 .366-.021Zm2.078-10.81a.26.26 0 0 1 .259.26 6.598 6.598 0 0 1-1.587 4.295l-.727.853-5.82 6.535a.26.26 0 0 1-.387-.345l5.816-6.531.724-.849a6.082 6.082 0 0 0 1.462-3.958.26.26 0 0 1 .26-.26Zm.001-5.765a.26.26 0 0 1 .259.259 6.6 6.6 0 0 1-1.587 4.296l-.727.852-5.82 6.535a.26.26 0 0 1-.387-.345l5.816-6.531.724-.848a6.084 6.084 0 0 0 1.462-3.959.26.26 0 0 1 .26-.259Zm-3.6 33.775a.26.26 0 0 1 .259-.26h4.47a.26.26 0 0 1 0 .519h-4.47a.26.26 0 0 1-.259-.259Z" fill="#fff"/><path d="M248.42 196.255v6.699a134.266 134.266 0 0 1-6.067-.394c-7.768-.674-14.571-1.939-18.376-3.266l.57-3.754c3.899-.571 10.422-.602 17.816.041 2.095.197 4.128.415 6.057.674Z" fill="#FE5244"/><path d="M198.227 245.998h-57.835v-57.335c0 2.447 9.509 4.428 21.248 4.428 11.74 0 21.249-1.981 21.249-4.428v-.011l15.338 57.346Z" fill="#3FB1B5"/><path d="M182.734 187.523c0 2.458-9.406 4.438-21.021 4.438s-21.021-1.98-21.021-4.428v-.01c.031-2.437 9.427-4.418 21.021-4.418 11.594 0 21 1.981 21.021 4.418Z" fill="#66B0F0"/><path d="M182.733 187.566c-.072 2.427-9.458 4.397-21.02 4.397-2.23 0-4.366-.073-6.378-.207v-21.331h-10.972c-1.4 0-2.53-1.13-2.53-2.53v-1.711c0-.768.342-1.452.881-1.919a2.53 2.53 0 0 1-.881-1.918v-1.711c0-.674.269-1.297.705-1.742a2.517 2.517 0 0 1-.705-1.743v-1.711c0-.694.28-1.327.736-1.794a2.514 2.514 0 0 1-.736-1.783v-3.101c0-1.4 1.13-2.53 2.53-2.53h14.01c.467-.27 1.224-1.224-.062-1.784l-3.007-.705c-2.386-1.192-3.9-3.173-3.9-5.848h10.578a4.22 4.22 0 0 1 3.962 2.789l16.53 46.146.259.736Z" fill="#E57281"/><path d="m182.785 187.587-.052-.052c0 2.447-9.406 4.428-21.021 4.428-2.229 0-4.366-.073-6.378-.208v-8.43a95.783 95.783 0 0 1 6.378-.208c10.474 0 19.165 1.618 20.762 3.723.041.052.155.332.311.747Z" fill="#9A3B82"/><path d="M158.613 117.402v8.41a8.272 8.272 0 0 1-8.276 8.275 8.271 8.271 0 0 1-8.275-8.275v-8.41c0 2.054 3.702 3.713 8.275 3.713s8.276-1.659 8.276-3.713Z" fill="#fff"/><path d="M150.337 121.114c4.57 0 8.276-1.662 8.276-3.712 0-2.05-3.706-3.713-8.276-3.713s-8.275 1.663-8.275 3.713 3.705 3.712 8.275 3.712Z" fill="#FFCF2D"/><path fill-rule="evenodd" clip-rule="evenodd" d="M141.75 102.719h17.174v23.083a8.586 8.586 0 0 1-4.304 7.445l-.155-.269v.018l.144.252a8.587 8.587 0 0 1-8.479.041h-.004l-.045-.026-.017-.009-.007-.005-.003-.002a8.588 8.588 0 0 1-4.304-7.445v-23.083Zm12.63 29.948a7.965 7.965 0 0 0 3.922-6.865v-22.461h-15.929v22.461a7.962 7.962 0 0 0 3.939 6.875h.001l.044.025.019.011.007.004.002.001a7.97 7.97 0 0 0 7.915-.01l.071-.041h.009Z" fill="#FFCF2D"/><path d="M150.337 106.743c4.622 0 8.369-1.662 8.369-3.712 0-2.051-3.747-3.713-8.369-3.713s-8.369 1.662-8.369 3.713c0 2.05 3.747 3.712 8.369 3.712Z" fill="#fff"/><path fill-rule="evenodd" clip-rule="evenodd" d="M142.814 101.764c-.392.411-.586.838-.586 1.266 0 .428.194.856.586 1.266.392.412.973.795 1.711 1.122 1.474.654 3.529 1.065 5.812 1.065 2.284 0 4.338-.411 5.813-1.065.737-.327 1.318-.71 1.711-1.122.391-.41.586-.838.586-1.266 0-.428-.195-.855-.586-1.266-.393-.412-.974-.795-1.711-1.122-1.475-.654-3.529-1.065-5.813-1.065-2.283 0-4.338.411-5.812 1.065-.738.327-1.319.71-1.711 1.122Zm1.5-1.596c1.555-.69 3.685-1.11 6.023-1.11 2.339 0 4.468.42 6.023 1.11.777.345 1.422.762 1.876 1.238.455.478.729 1.027.729 1.624 0 .597-.274 1.147-.729 1.624-.454.476-1.099.894-1.876 1.238-1.555.69-3.684 1.11-6.023 1.11-2.338 0-4.468-.42-6.023-1.11-.777-.344-1.422-.762-1.876-1.238-.455-.477-.729-1.027-.729-1.624 0-.597.274-1.146.729-1.624.454-.476 1.099-.893 1.876-1.238Z" fill="#FFCF2D"/><path d="M150.337 103.59a1.224 1.224 0 1 0 0-2.448 1.224 1.224 0 0 0 0 2.448Z" fill="#FFCF2D"/><path d="M147.641 128.581a1.079 1.079 0 1 0-.001-2.157 1.079 1.079 0 0 0 .001 2.157Z" fill="#fff"/><path fill-rule="evenodd" clip-rule="evenodd" d="M147.641 126.684a.82.82 0 1 0 0 1.64.82.82 0 0 0 0-1.64Zm-1.338.82a1.338 1.338 0 1 1 2.676 0 1.338 1.338 0 0 1-2.676 0Z" fill="#FFCF2D"/><path d="M154.112 118.295a.891.891 0 1 0 .001-1.783.891.891 0 0 0-.001 1.783Z" fill="#fff"/><path d="M145.484 124.985a.892.892 0 1 0 0-1.784.892.892 0 0 0 0 1.784Z" fill="#FFCF2D"/><path d="M158.291 176.229h-15.908c-.291 0-.374-.383-.125-.518l5.559-2.105a2.258 2.258 0 0 0 1.452-2.105v-33.142c0-2.199-1.141-4.262-3.039-5.372a8.228 8.228 0 0 0 4.107 1.089 8.26 8.26 0 0 0 4.117-1.099c-1.908 1.099-3.049 3.173-3.049 5.371v33.142c0 .934.581 1.774 1.452 2.105l5.558 2.105c.249.146.166.529-.124.529Z" fill="#fff"/><path fill-rule="evenodd" clip-rule="evenodd" d="M152.822 133.967a8.48 8.48 0 0 1-2.485.37 8.527 8.527 0 0 1-2.494-.37 6.544 6.544 0 0 1 1.685 4.394v33.142a2.516 2.516 0 0 1-1.619 2.347v.001l-5.535 2.096h-.001l-.001.003a.033.033 0 0 0-.001.015.049.049 0 0 0 .003.007H158.3l.003-.008a.037.037 0 0 0-.002-.021.057.057 0 0 0-.004-.007l-.002-.002-5.53-2.094a2.516 2.516 0 0 1-1.619-2.347V138.35a6.54 6.54 0 0 1 1.676-4.383Zm-2.485-.148a7.994 7.994 0 0 0 3.988-1.065l.258.45c-1.823 1.05-2.919 3.036-2.919 5.146v33.143c0 .825.514 1.568 1.285 1.862m-5.224.011-5.575 2.111-.015.008a.536.536 0 0 0-.269.596c.049.216.237.41.517.41h15.908a.521.521 0 0 0 .517-.412.548.548 0 0 0-.262-.6l-.018-.011-5.579-2.113m-5.224.011a2 2 0 0 0 1.285-1.863v-33.142c0-2.11-1.095-4.087-2.911-5.148l.26-.449a7.972 7.972 0 0 0 3.978 1.055" fill="#FFCF2D"/><path d="M144.447 90.575a1.41 1.41 0 1 0-.001-2.822 1.41 1.41 0 0 0 .001 2.822Z" fill="#FFCF2D"/><path d="M154.111 92.848a1.224 1.224 0 1 0 0-2.448 1.224 1.224 0 0 0 0 2.448Z" fill="#fff"/><path fill-rule="evenodd" clip-rule="evenodd" d="M154.112 90.66a.965.965 0 1 0 0 1.928.965.965 0 0 0 0-1.929Zm-1.483.964a1.483 1.483 0 1 1 2.966 0 1.483 1.483 0 0 1-2.966 0Z" fill="#FFCF2D"/><path d="M148.118 97.618a.892.892 0 1 0 0-1.784.892.892 0 0 0 0 1.784Z" fill="#fff"/><path fill-rule="evenodd" clip-rule="evenodd" d="M148.117 96.093a.632.632 0 1 0 0 1.264.632.632 0 0 0 0-1.264Zm-1.151.632a1.152 1.152 0 1 1 2.303.001 1.152 1.152 0 0 1-2.303 0Z" fill="#FFCF2D"/><path d="M147.652 86.76a.737.737 0 1 0 0-1.474.737.737 0 0 0 0 1.474Z" fill="#FFCF2D"/><path d="M160.997 149.561v20.874h-16.634c-1.4 0-2.53-1.13-2.53-2.53v-1.711c0-.768.342-1.452.881-1.919a2.528 2.528 0 0 1-.881-1.918v-1.711c0-.674.269-1.296.705-1.742a2.513 2.513 0 0 1-.705-1.742v-1.711c0-.695.28-1.328.736-1.794a2.519 2.519 0 0 1-.736-1.784v-2.302h19.164v-.01Z" fill="#E57281"/><path fill-rule="evenodd" clip-rule="evenodd" d="M142.123 161.951a.26.26 0 0 1 .259.259 2.613 2.613 0 0 0 2.613 2.614h13.461a2.613 2.613 0 0 0 2.613-2.614.26.26 0 0 1 .519 0 3.132 3.132 0 0 1-3.132 3.132h-13.461a3.132 3.132 0 0 1-3.132-3.132.26.26 0 0 1 .26-.259Zm0-5.174a.26.26 0 0 1 .259.26 2.613 2.613 0 0 0 2.613 2.613h13.461a2.613 2.613 0 0 0 2.613-2.613.26.26 0 1 1 .519 0 3.131 3.131 0 0 1-3.132 3.131h-13.461a3.131 3.131 0 0 1-3.132-3.131.26.26 0 0 1 .26-.26Zm0-5.173a.26.26 0 0 1 .259.259 2.613 2.613 0 0 0 2.613 2.613h13.461a2.613 2.613 0 0 0 2.613-2.613.26.26 0 0 1 .519 0 3.13 3.13 0 0 1-3.132 3.131h-13.461a3.13 3.13 0 0 1-3.132-3.131.26.26 0 0 1 .26-.259Z" fill="#9A3B82"/><path fill-rule="evenodd" clip-rule="evenodd" d="M161.328 147.725a.26.26 0 0 1 .26.259v19.402a3.132 3.132 0 0 1-3.132 3.132H144.86a.26.26 0 0 1 0-.519h13.596a2.613 2.613 0 0 0 2.613-2.613v-19.402a.26.26 0 0 1 .259-.259Z" fill="#9A3B82"/><path fill-rule="evenodd" clip-rule="evenodd" d="M158.268 146.501c-.852 0-1.545.693-1.545 1.545 0 .984-.801 1.773-1.773 1.773h-7.716a1.09 1.09 0 0 1-1.088-1.089 1.09 1.09 0 0 1 1.088-1.088h1.38a.26.26 0 0 1 0 .518h-1.38a.572.572 0 0 0-.57.57c0 .314.257.571.57.571h7.716c.688 0 1.255-.559 1.255-1.255 0-1.139.925-2.064 2.063-2.064h1.255c1.139 0 2.064.925 2.064 2.064v3.36a.26.26 0 0 1-.519 0v-3.36c0-.852-.692-1.545-1.545-1.545h-1.255Z" fill="#9A3B82"/><path d="m242.778 41.029-34.523 35.403-39.801-43.875 43.441-30.57 30.883 39.042Z" fill="#3FB1B5"/><path fill-rule="evenodd" clip-rule="evenodd" d="M165.614 32.411 211.12.51l-.357-.51-46.085 32.308 42 46.034.459-.42-41.523-45.51Z" fill="#FFCF2D"/><path fill-rule="evenodd" clip-rule="evenodd" d="M218.764 45.471c-.607-4.103-4.422-6.95-8.534-6.343l-2.603.383-.091-.615 2.603-.384c4.454-.657 8.583 2.426 9.241 6.868l2.271 15.472c.737 5.01 6.114 7.877 10.685 5.686l10.858-5.195.268.56-10.857 5.196" fill="#FFCF2D"/><path d="M257.172 64.59a44.73 44.73 0 0 1 3.111 1.846 9.237 9.237 0 0 1-.933 2.654 8.923 8.923 0 0 1-1.701 2.24 42.477 42.477 0 0 1-3.256-1.586c-5.548-2.997-9.416-6.575-8.649-7.995.767-1.421 5.88-.156 11.428 2.841Z" fill="#FFCF2D"/><path fill-rule="evenodd" clip-rule="evenodd" d="M244.563 60.39a.943.943 0 1 0-.001 1.887.943.943 0 0 0 .001-1.887Zm-1.566.943a1.566 1.566 0 1 1 3.132 0 1.566 1.566 0 0 1-3.132 0Z" fill="#66B0F0"/><path d="M121.175 207.156v38.846H76.281v-22.887c.975 2.551 12.403.923 24.599-3.743 10.972-4.2 19.444-9.364 20.295-12.216Z" fill="#FE5244"/><path d="M121.175 206.026c-.861 2.852-9.323 8.016-20.305 12.216-12.186 4.666-23.614 6.294-24.599 3.743-.985-2.551 8.867-8.327 21.062-12.993 12.186-4.667 22.867-6.378 23.842-3.827.103.26.103.55 0 .861Z" fill="#66B0F0"/><path d="M111.665 180.267v32.914l-2.478 1.254a102.866 102.866 0 0 1-8.307 3.578c-5.486 2.105-10.826 3.588-15.12 4.355l2.468-9.695 4.024-15.825a6.376 6.376 0 0 1-4.926-2.323l-16.52-18.79c2.831-2.582 7.062.933 7.062.933l-1.586-8.099a6.19 6.19 0 0 1 1.503-5.35l5.02-5.507c.995-1.089 2.79-.663 3.204.747l3.567 12.309s8.857 6.761 10.516 6.761c1.877 0 2.53-1.524-.975-6.533-2.634-3.764 0-6.512 0-6.512l8.577 7.217a11.232 11.232 0 0 1 3.971 8.566Z" fill="#fff"/><path fill-rule="evenodd" clip-rule="evenodd" d="m82.996 157.887-5.02 5.506a5.933 5.933 0 0 0-1.44 5.126v.001l1.727 8.813-.56-.465-.002-.002-.008-.007-.034-.027c-.03-.023-.075-.059-.134-.103a9.862 9.862 0 0 0-.504-.353 9.662 9.662 0 0 0-1.717-.902c-1.311-.516-2.858-.718-4.13.287l16.35 18.596.002.003a6.118 6.118 0 0 0 4.726 2.229h.334l-4.106 16.147-2.369 9.305c4.206-.784 9.371-2.235 14.676-4.27h.001a102.653 102.653 0 0 0 8.284-3.568l.001-.001 2.333-1.181v-32.755c0-3.221-1.418-6.28-3.88-8.367l-8.376-7.049a4.778 4.778 0 0 0-.77 1.549c-.31 1.087-.32 2.633.95 4.448.881 1.259 1.506 2.307 1.916 3.171.409.862.614 1.558.636 2.112.022.563-.144.998-.493 1.283-.337.275-.8.375-1.297.375-.27 0-.637-.13-1.037-.314a16.38 16.38 0 0 1-1.439-.779c-1.071-.639-2.34-1.488-3.552-2.334a145.205 145.205 0 0 1-4.544-3.311l-.075-.057-.026-.019.157-.206-.157.206-.068-.052-3.59-12.39v-.001c-.36-1.218-1.907-1.582-2.765-.644Zm6.806 12.726-3.544-12.227v-.001c-.471-1.602-2.511-2.087-3.645-.848l-5.019 5.506a6.454 6.454 0 0 0-1.567 5.576l1.459 7.444-.18-.121a10.152 10.152 0 0 0-1.812-.95c-1.445-.569-3.337-.84-4.863.551l-.188.172 16.686 18.978a6.638 6.638 0 0 0 4.792 2.406l-3.944 15.509-2.567 10.086.396-.071c4.311-.77 9.668-2.258 15.167-4.368l-.093-.242.093.242c2.993-1.143 5.81-2.36 8.327-3.587l.002-.001.002-.001 2.621-1.326v-33.074a11.49 11.49 0 0 0-4.064-8.763l-8.763-7.374-.168.175.187.179-.187-.179-.001.001-.002.003-.008.008a4.543 4.543 0 0 0-.39.514 5.293 5.293 0 0 0-.649 1.427c-.35 1.229-.34 2.938 1.025 4.887.871 1.245 1.479 2.267 1.873 3.097.396.833.568 1.456.586 1.91.018.444-.112.704-.304.861-.204.167-.526.258-.968.258-.144 0-.417-.082-.82-.267-.389-.18-.862-.439-1.39-.753-1.056-.629-2.313-1.471-3.522-2.314a147.944 147.944 0 0 1-4.244-3.085l-.283-.214a1.193 1.193 0 0 0-.031-.024Z" fill="#FFCF2D"/><path fill-rule="evenodd" clip-rule="evenodd" d="M79.843 160.598c1.094-1.201 3.01-.731 3.459.817l3.41 11.764 6.21 4.968-.325.404-6.338-5.07-3.455-11.921c-.34-1.168-1.763-1.508-2.577-.613l-.384-.349Zm-2.997 3.463c1.04-1.146 2.926-.704 3.355.776l3.224 11.132 5.392 4.387-.328.403-5.517-4.49-3.269-11.287a1.453 1.453 0 0 0-2.473-.573l-.384-.348Zm1.178 12.419 5.973 5.009-.333.397-5.973-5.008.333-.398Zm21.206 20.628h-6.979v-.518h6.98v.518Z" fill="#FFCF2D"/><path d="M111.665 204.697v8.701c-3.09 1.638-6.772 3.297-10.785 4.842-5.496 2.105-10.837 3.588-15.14 4.356l2.488-9.707a118.979 118.979 0 0 1 9.116-3.899c5.278-2.011 10.277-3.484 14.321-4.293Z" fill="#FFCF2D"/><path fill-rule="evenodd" clip-rule="evenodd" d="m107.483 102.13-3.132-6.872.566-.258 3.173 6.961.005.048a4.982 4.982 0 0 1-4.357 5.53l-.001.001a4.355 4.355 0 0 0-3.813 4.839l.456 3.837-.618.073-.456-3.837a4.977 4.977 0 0 1 4.357-5.53 4.362 4.362 0 0 0 3.82-4.792Z" fill="#FFCF2D"/><path d="m141.117 72.906 16.614-25.924-57.141-.457-18.718 49.838 30.903-1.452 28.342-22.005Z" fill="#FE5244"/><path fill-rule="evenodd" clip-rule="evenodd" d="m98.457 44.045 59.962.676-.008.623-59.526-.672-19.761 52.102-.582-.22 19.915-52.51Z" fill="#FFCF2D"/><path d="M140.091 69.019c3.318 5.693-2.323 15.171-12.61 21.165-10.288 5.994-21.312 6.232-24.63.54a6.951 6.951 0 0 1-.871-2.52c-.83-5.694 4.594-13.471 13.481-18.646 8.888-5.174 18.325-6.066 22.867-2.54a7.056 7.056 0 0 1 1.763 2.001Z" fill="#66B0F0"/><path fill-rule="evenodd" clip-rule="evenodd" d="M128.557 65.333c-3.989.424-8.528 1.924-12.939 4.493-4.411 2.568-7.954 5.777-10.289 9.04-2.339 3.269-3.44 6.555-3.042 9.29.13.867.398 1.668.832 2.408v.001c1.577 2.704 5.019 4.055 9.426 3.959 4.395-.096 9.672-1.635 14.779-4.61 5.107-2.976 9.047-6.809 11.296-10.586 2.256-3.787 2.778-7.45 1.202-10.153a6.754 6.754 0 0 0-1.686-1.914c-2.182-1.693-5.583-2.352-9.579-1.928Zm-.066-.619c4.079-.433 7.667.224 10.027 2.056l.001.001a7.374 7.374 0 0 1 1.84 2.09c1.743 2.989 1.103 6.912-1.204 10.785-2.313 3.884-6.338 7.787-11.518 10.805-5.181 3.019-10.559 4.596-15.078 4.695-4.506.098-8.235-1.279-9.977-4.267a7.257 7.257 0 0 1-.91-2.631v-.001c-.431-2.958.764-6.407 3.151-9.743 2.392-3.343 6.005-6.61 10.481-9.216 4.477-2.606 9.1-4.14 13.187-4.574Z" fill="#fff"/><path fill-rule="evenodd" clip-rule="evenodd" d="M127.757 60.646c-4.406.098-9.692 1.64-14.8 4.614-5.113 2.979-9.06 6.817-11.315 10.603-2.26 3.795-2.791 7.479-1.201 10.207l1.288 2.211-.006-.044.257-.035-.257.037c-.423-2.94.765-6.374 3.146-9.705 2.386-3.336 5.991-6.598 10.462-9.201 4.471-2.603 9.086-4.133 13.165-4.567 4.072-.433 7.645.225 9.991 2.045l.001.001.033.026-1.288-2.211c-1.59-2.728-5.059-4.078-9.476-3.98Zm12.557 8.24-2.633-4.52c-1.729-2.965-5.436-4.337-9.935-4.238-4.51.1-9.88 1.674-15.049 4.683h-.001c-5.174 3.015-9.191 6.912-11.499 10.787-2.303 3.866-2.933 7.768-1.204 10.733l2.612 4.484.022.038.448-.262h-.001a6.496 6.496 0 0 1-.838-2.424v-.002c-.396-2.754.713-6.054 3.055-9.33 2.338-3.268 5.884-6.483 10.301-9.054 4.416-2.572 8.962-4.075 12.959-4.5 4.004-.425 7.421.235 9.617 1.94.691.54 1.26 1.18 1.699 1.928l.448-.262h-.001Z" fill="#fff"/><path d="M99.18 130.232a43.578 43.578 0 0 1-1.297 3.381 8.903 8.903 0 0 1-2.769-.477 9.088 9.088 0 0 1-2.5-1.296c.27-1.11.602-2.282 1.007-3.474 2.011-5.973 4.874-10.391 6.409-9.883 1.534.519 1.151 5.776-.85 11.749Z" fill="#FFCF2D"/><path fill-rule="evenodd" clip-rule="evenodd" d="M100.237 116.304a.943.943 0 1 0 0 1.887.943.943 0 0 0 0-1.887Zm-1.566.944a1.566 1.566 0 1 1 3.132 0 1.566 1.566 0 0 1-3.132 0Z" fill="#66B0F0"/><path d="M46.695 203.554v42.443H.07v-62.468c.912 3.059 10.67 9.437 22.784 14.767 12.89 5.693 23.571 8.037 23.841 5.258Z" fill="#66B0F0"/><path d="M46.695 202.424c-.28 2.78-10.951.426-23.841-5.257C10.74 191.827.983 185.449.07 182.4a1.3 1.3 0 0 1-.062-.549c.27-2.779 10.95-.425 23.841 5.257 12.89 5.683 23.126 12.537 22.846 15.316Z" fill="#9A3B82"/><path d="M19.101 141.544a6.63 6.63 0 0 1 5.963-3.733h7.332l.384 29.471 5.112 27.086 1.629 8.607c-4.314-.954-10.205-2.956-16.655-5.797-3.65-1.607-8.224-3.992-11.273-5.672v-35.859c0-.488.094-.975.26-1.431l7.248-12.672Z" fill="#A0505A"/><path d="M39.508 202.975c-4.314-.954-10.205-2.956-16.655-5.797-3.65-1.607-8.224-3.992-11.272-5.672v-9.012c3.329 1.068 8.254 2.852 12.268 4.615 5.413 2.385 10.142 4.842 14.041 7.259l1.618 8.607Z" fill="#73325A"/><path d="m66.813 104.68-39.002 71.759c-1.442 2.655-5.414 3.287-8.867 1.41-3.453-1.877-5.082-5.547-3.64-8.213l39.003-71.759 12.506 6.803Z" fill="#fff"/><path fill-rule="evenodd" clip-rule="evenodd" d="m54.203 97.523 12.962 7.051-39.127 71.987c-.767 1.413-2.2 2.272-3.866 2.537-1.666.265-3.58-.059-5.352-1.023-3.52-1.913-5.282-5.721-3.744-8.564l39.127-71.988Zm.208.704-38.88 71.531c-1.345 2.488.15 6.021 3.537 7.862 1.68.913 3.48 1.211 5.023.966 1.543-.246 2.817-1.031 3.492-2.272l38.879-71.532-12.051-6.555Z" fill="#FFCF2D"/><path d="M66.806 104.696c1.444-2.657-.183-6.331-3.636-8.207-3.452-1.877-7.42-1.243-8.864 1.413-1.444 2.657.183 6.332 3.635 8.208 3.452 1.876 7.421 1.243 8.865-1.414Z" fill="#66B0F0"/><path fill-rule="evenodd" clip-rule="evenodd" d="M54.533 98.026c-1.348 2.479.146 6.016 3.532 7.855 3.385 1.84 7.166 1.17 8.513-1.309 1.347-2.48-.147-6.017-3.532-7.856-3.385-1.84-7.166-1.17-8.513 1.31Zm3.284 8.311c-3.519-1.912-5.28-5.724-3.74-8.559 1.54-2.834 5.698-3.43 9.217-1.518 3.519 1.913 5.28 5.725 3.74 8.559-1.54 2.835-5.698 3.43-9.217 1.518Z" fill="#FFCF2D"/><path d="m41.333 132.148 18.428-15.046-.29 5.35 5.9 1.473-13.44 8.296c3.61-.622 7.955-1.13 11.532-.85 4.263.331 2.831 5.319 1.234 9.581 3.734-.363 16.25-7.943 20.97-6.512 2.882.871 1.845 6.751 1.016 9.997 1.202.062 7.29-.011 7.29-.011l-3.215 2.935 1.763 2.935c-6.844.3-6.927-.778-6.067-5.631.146-5.279-5.703-.208-18.158 2.768-6.17 1.473-5.372-2.54-3.848-6.719-.611-1.919-5.185-4.003-19.88-.166l-3.235-8.4Z" fill="#FE5244"/><path d="M41.603 141.314a5.444 5.444 0 1 0 0-10.888 5.444 5.444 0 0 0 0 10.888Z" fill="#fff"/><path fill-rule="evenodd" clip-rule="evenodd" d="M41.603 130.685a5.185 5.185 0 1 0-.001 10.37 5.185 5.185 0 0 0 .001-10.37Zm-5.704 5.184a5.704 5.704 0 1 1 11.408.002 5.704 5.704 0 0 1-11.408-.002Z" fill="#FE5244"/><path d="M39.726 137.811v.342a6.313 6.313 0 0 1-6.316 6.315h-6.626v-6.657h12.942Zm8.068 12.785-1.752 4.106-2.043 4.802-1.11 2.603-1.69 3.971a2.854 2.854 0 0 1-.156.311c0 .011-.01.011-.01.021-.54.933-1.587 1.514-2.738 1.514h-13.43c-1.628 0-2.737-1.545-2.136-2.966l.975-2.291 2.147-5.04 1.846-4.345 1.628-3.816c.477-1.12 1.628-1.857 2.914-1.857h13.43c1.617.021 2.727 1.566 2.125 2.987Z" fill="#A0505A"/><path fill-rule="evenodd" clip-rule="evenodd" d="M30.497 152.565c-.796 0-1.535.342-2.047.91a.26.26 0 0 1-.385-.347 3.271 3.271 0 0 1 2.432-1.081h12.828c1.505 0 2.598 1.297 2.446 2.683a.259.259 0 1 1-.515-.057c.118-1.082-.739-2.108-1.93-2.108h-12.83Zm-1.857 4.469c-.75 0-1.441.294-1.942.795a.259.259 0 1 1-.367-.366 3.251 3.251 0 0 1 2.31-.947h12.828c1.642 0 2.785 1.53 2.365 3.045a.26.26 0 0 1-.5-.138c.327-1.181-.562-2.389-1.865-2.389H28.64Zm-2.063 5.082c-.722 0-1.394.275-1.896.749a.26.26 0 0 1-.356-.377 3.273 3.273 0 0 1 2.252-.89h12.828c1.688 0 2.867 1.645 2.319 3.207a.26.26 0 0 1-.49-.172c.427-1.217-.49-2.517-1.829-2.517H26.577Z" fill="#73325A"/><path d="M70.889 29.985a42.429 42.429 0 0 1 2.572-2.551 8.96 8.96 0 0 1 2.333 1.576 9.241 9.241 0 0 1 1.742 2.209 41.68 41.68 0 0 1-2.354 2.748c-4.293 4.614-8.722 7.466-9.914 6.367-1.182-1.1 1.327-5.735 5.62-10.35Z" fill="#FFCF2D"/><path d="m40.753 66.527-1.369.85c-4.967 3.08-14.643-3.546-21.601-14.797-6.97-11.252-8.587-22.856-3.63-25.935l1.41-.872 8.39 24.68 16.8 16.074Z" fill="#66B0F0"/><path d="M54.649 79.832 40.752 66.527l-16.81-16.084-8.39-24.67L8.056 3.717 42.972 31.85l11.677 47.982Z" fill="#66B0F0"/><path fill-rule="evenodd" clip-rule="evenodd" d="m7.416 2.803 35.833 28.872 11.954 49.119-14.665-14.041-16.866-16.137-8.414-24.741L7.416 2.803Zm1.279 1.83 7.152 21.041 8.365 24.598 16.756 16.031 13.127 12.568-11.4-46.844-34-27.395Z" fill="#fff"/><path fill-rule="evenodd" clip-rule="evenodd" d="m8.985 2.53 35.437 27.909 11.62 48.003-.606.146-11.568-47.793L8.6 3.018l.385-.489Z" fill="#9A3B82"/><path fill-rule="evenodd" clip-rule="evenodd" d="M49.137 42.273a6.558 6.558 0 0 0-7.792-4.365 6.574 6.574 0 0 0-4.842 7.931l-.605.146a7.196 7.196 0 0 1 5.3-8.681 7.18 7.18 0 0 1 8.532 4.78v.002l2.915 9.407c1.511 4.895 8.564 4.517 9.55-.518l1.68-8.638.61.12-1.68 8.637c-1.109 5.667-9.051 6.099-10.755.583m0 0-2.913-9.403v-.001" fill="#FFCF2D"/><path fill-rule="evenodd" clip-rule="evenodd" d="M64.573 40.439a.944.944 0 1 0 0 1.887.944.944 0 0 0 0-1.887Zm-1.566.943a1.566 1.566 0 1 1 3.132 0 1.566 1.566 0 0 1-3.132 0Z" fill="#66B0F0"/></g><defs><clipPath id="a"><path fill="#fff" d="M0 0h354v246H0z"/></clipPath></defs></svg>