<svg width="22" height="20" fill="none" xmlns="http://www.w3.org/2000/svg"><path fill-rule="evenodd" clip-rule="evenodd" d="M20.923 8.567a7.753 7.753 0 0 1-.98 2.787c.037.214.056.43.056.647a4.02 4.02 0 0 1-.622 2.127c-.201.327-.253.71-.273.963-.023.29-.015.607.005.912.023.342.066.7.114 1.04a19.91 19.91 0 0 0-1.217-.32 8.679 8.679 0 0 0-.991-.172c-.272-.029-.664-.05-1.015.063a8.139 8.139 0 0 1-2.5.386 8.045 8.045 0 0 1-2.882-.514 13.24 13.24 0 0 1-4.068-.437C8.129 17.873 10.728 19 13.5 19c1.082 0 2.122-.166 3.08-.471h.009c.025 0 .093-.002.22.01.201.022.459.068.756.135.593.134 1.258.33 1.777.495 1.1.35 2.166-.61 1.97-1.727a15.772 15.772 0 0 1-.207-1.575 4.46 4.46 0 0 1-.007-.619c.005-.063.011-.103.015-.125A6.012 6.012 0 0 0 22 12.001a6.026 6.026 0 0 0-1.077-3.434Z" fill="#FF3F3A"/><path fill-rule="evenodd" clip-rule="evenodd" d="M4.597 3.698C3.249 4.73 2.5 6.082 2.5 7.5c0 .707.184 1.388.529 2.021.131.241.169.49.182.659.015.183.007.372-.009.549a8.768 8.768 0 0 1-.2 1.148c-.106.46-.243.953-.383 1.415a27.508 27.508 0 0 1 1.653-.549c.443-.129.89-.24 1.287-.304.343-.054.84-.107 1.268.041.96.332 2.034.52 3.173.52 2.147 0 4.054-.667 5.403-1.698C16.75 10.27 17.5 8.918 17.5 7.5c0-1.418-.75-2.771-2.097-3.802C14.053 2.667 12.147 2 10 2c-2.148 0-4.054.667-5.403 1.698ZM3.382 2.11C5.109.79 7.452 0 10 0c2.547 0 4.89.788 6.617 2.11C18.346 3.43 19.5 5.327 19.5 7.5c0 2.172-1.154 4.069-2.883 5.39C14.89 14.213 12.547 15 10 15c-1.343 0-2.626-.219-3.791-.617-.001.003-.096-.006-.338.032-.278.044-.634.13-1.038.248-.806.235-1.71.568-2.4.836-1.193.464-2.41-.682-2.007-1.903.213-.647.465-1.465.628-2.171a6.86 6.86 0 0 0 .157-.877 1.83 1.83 0 0 0 .008-.17A6.176 6.176 0 0 1 .499 7.5c0-2.172 1.154-4.069 2.883-5.39Z" fill="#FF3F3A"/></svg>