<svg width="112" height="170" fill="none" xmlns="http://www.w3.org/2000/svg"><g opacity=".8" clip-path="url(#a)" fill="#FFCF2D"><path d="M1.23 80.33c.793.792.786 1.987-.015 2.788-.801.801-1.996.808-2.788.016-.793-.792-.786-1.987.016-2.788a1.983 1.983 0 0 1 2.788-.016Zm11.953-11.952c.792.792.785 1.987-.016 2.788-.801.801-1.996.808-2.788.016-.793-.792-.786-1.987.016-2.788.734-.735 2.062-.742 2.788-.016Zm11.952-11.953c.792.793.785 1.988-.016 2.789-.801.801-1.996.808-2.788.016-.792-.792-.785-1.987.016-2.788a1.983 1.983 0 0 1 2.788-.017ZM37.02 44.54c.792.793.786 1.988-.016 2.789-.8.801-1.996.808-2.788.016-.792-.792-.785-1.987.016-2.788a1.983 1.983 0 0 1 2.788-.016Zm11.953-11.951c.792.792.785 1.987-.017 2.788-.8.801-1.996.808-2.788.016-.792-.792-.785-1.987.016-2.788a1.983 1.983 0 0 1 2.789-.016Zm11.952-11.953c.792.793.785 1.988-.016 2.789-.802.801-1.997.808-2.789.016s-.785-1.987.017-2.788c.734-.735 2.062-.743 2.788-.017ZM-.886 102.117c.792.792.785 1.987-.016 2.788-.802.801-1.997.808-2.789.016s-.785-1.987.016-2.788c.802-.801 1.997-.808 2.789-.016Zm11.952-11.952c.792.792.785 1.987-.016 2.788-.802.801-1.997.808-2.789.016s-.785-1.987.016-2.788c.802-.802 1.997-.808 2.789-.016Zm11.952-11.952c.792.792.785 1.987-.016 2.788-.801.801-1.996.808-2.788.016-.793-.792-.786-1.987.016-2.788.734-.735 1.996-.808 2.788-.016ZM34.97 66.26c.792.792.785 1.987-.016 2.789-.801.801-1.996.808-2.788.016-.792-.792-.785-1.987.016-2.788.801-.802 1.996-.809 2.788-.017Zm11.885-11.884c.793.792.786 1.987-.016 2.788-.8.801-1.996.808-2.788.016-.792-.792-.785-1.987.016-2.788.801-.802 1.996-.808 2.788-.016Zm11.952-11.953c.792.793.786 1.988-.016 2.789-.8.801-1.996.808-2.788.016-.792-.792-.785-1.987.016-2.788.801-.802 1.996-.809 2.788-.017ZM70.76 30.471c.792.792.785 1.987-.017 2.789-.8.8-1.996.808-2.788.016-.792-.792-.785-1.987.016-2.789.735-.734 1.996-.808 2.789-.016ZM5.532 36.822c.792.792.785 1.987-.016 2.788-.802.801-1.997.808-2.789.016s-.785-1.987.016-2.788c.802-.801 1.997-.808 2.789-.016Zm11.885-11.885c.792.792.785 1.987-.016 2.788-.801.802-1.996.809-2.788.017-.793-.793-.786-1.988.016-2.789.8-.801 1.996-.808 2.788-.016ZM29.37 12.985c.791.792.784 1.987-.017 2.788-.801.802-1.996.808-2.788.016-.792-.792-.786-1.987.016-2.788.801-.801 1.996-.808 2.788-.016ZM41.321 1.033c.792.792.785 1.987-.016 2.788-.801.801-1.996.808-2.788.016-.792-.792-.785-1.987.016-2.788.734-.735 1.996-.808 2.788-.016ZM3.414 58.61c.792.791.785 1.986-.016 2.787-.801.802-1.996.809-2.788.017-.792-.793-.785-1.988.016-2.789.734-.734 1.996-.808 2.788-.016Zm11.952-11.953c.792.792.785 1.987-.016 2.788-.801.801-1.996.808-2.788.016-.792-.792-.785-1.987.016-2.788.801-.801 1.996-.808 2.788-.016Zm11.886-11.885c.792.792.785 1.987-.016 2.788-.802.802-1.997.809-2.789.017s-.785-1.987.016-2.789c.802-.801 1.997-.808 2.789-.016ZM39.204 22.82c.792.792.785 1.987-.016 2.788-.802.802-1.997.808-2.789.016s-.785-1.987.017-2.788c.8-.801 1.996-.808 2.788-.016Zm11.952-11.952c.792.792.785 1.987-.016 2.788-.801.801-1.996.808-2.788.016-.792-.792-.786-1.987.016-2.788.734-.735 1.996-.808 2.788-.016ZM8.883 111.886c.792.792.785 1.987-.017 2.789-.8.801-1.996.808-2.788.016-.792-.792-.785-1.987.016-2.789a1.983 1.983 0 0 1 2.789-.016Zm11.952-11.952c.792.792.785 1.987-.017 2.789-.8.801-1.996.808-2.788.016-.792-.792-.785-1.987.016-2.789a1.983 1.983 0 0 1 2.789-.016Zm11.952-11.952c.792.792.785 1.987-.016 2.788-.802.802-1.997.809-2.789.017-.792-.793-.785-1.988.016-2.789.735-.734 2.063-.742 2.789-.016ZM44.739 76.03c.792.792.785 1.987-.016 2.788-.801.802-1.996.808-2.788.016-.793-.792-.786-1.987.015-2.788a1.983 1.983 0 0 1 2.789-.016Zm11.885-11.886c.792.792.785 1.987-.016 2.788-.801.802-1.996.809-2.788.017-.792-.793-.785-1.987.016-2.789a1.983 1.983 0 0 1 2.788-.016Zm11.952-11.952c.793.792.786 1.987-.016 2.788-.801.802-1.996.809-2.788.017-.792-.793-.785-1.988.016-2.789a1.983 1.983 0 0 1 2.788-.016ZM80.528 40.24c.793.792.786 1.987-.016 2.788-.8.802-1.996.808-2.788.016-.792-.792-.785-1.987.016-2.788.735-.734 2.063-.742 2.788-.016ZM6.832 133.606c.792.792.785 1.987-.016 2.788-.802.802-1.997.809-2.789.017-.792-.793-.785-1.988.016-2.789.735-.734 1.997-.808 2.789-.016Zm11.885-11.886c.792.792.785 1.987-.016 2.789-.801.801-1.996.808-2.788.016-.792-.792-.785-1.987.016-2.789.801-.801 1.996-.808 2.788-.016Zm11.936-9.163a1.973 1.973 0 0 0 .016-2.789 1.973 1.973 0 0 0-2.788.016 1.972 1.972 0 0 0-.016 2.789 1.973 1.973 0 0 0 2.788-.016Zm11.968-14.741c.792.792.785 1.987-.016 2.788-.801.802-1.996.809-2.788.016-.792-.792-.785-1.987.016-2.788.735-.734 1.996-.808 2.788-.016Zm11.953-11.952c.792.792.785 1.987-.017 2.788-.8.802-1.996.808-2.788.016-.792-.792-.785-1.987.016-2.788.802-.801 1.997-.808 2.789-.016ZM66.459 73.98c.792.791.785 1.986-.016 2.787-.801.802-1.996.809-2.788.017-.793-.793-.786-1.988.016-2.789.8-.801 1.996-.808 2.788-.016Zm11.936-9.165a1.972 1.972 0 0 0 .016-2.788 1.972 1.972 0 0 0-2.788.016 1.972 1.972 0 0 0-.016 2.788 1.972 1.972 0 0 0 2.788-.016Zm11.968-14.74c.792.792.785 1.987-.016 2.788-.801.801-1.996.808-2.788.016-.792-.792-.785-1.987.016-2.788.734-.735 1.996-.808 2.788-.016ZM4.715 155.393c.792.792.785 1.987-.016 2.789-.802.801-1.997.808-2.789.016s-.785-1.987.017-2.789c.8-.801 1.996-.808 2.788-.016Zm11.952-11.952c.792.792.785 1.987-.016 2.788-.801.802-1.996.809-2.788.016-.793-.792-.786-1.987.016-2.788.734-.734 1.996-.808 2.788-.016Zm11.885-11.885c.792.792.785 1.987-.016 2.789-.801.801-1.996.808-2.788.016-.792-.792-.785-1.987.016-2.789.801-.801 1.996-.808 2.788-.016Zm11.952-11.953c.792.792.785 1.987-.016 2.788-.801.802-1.996.809-2.788.017-.792-.792-.785-1.987.016-2.789.801-.801 1.996-.808 2.788-.016Zm11.952-11.951c.793.792.786 1.987-.016 2.788-.8.802-1.996.808-2.788.016-.792-.792-.785-1.987.016-2.788.735-.734 1.996-.808 2.788-.016Zm11.953-11.953c.792.792.785 1.987-.017 2.788-.8.802-1.996.808-2.788.016-.792-.792-.785-1.987.016-2.788.802-.801 1.997-.808 2.789-.016Zm11.885-11.885c.792.792.785 1.987-.016 2.788-.801.802-1.996.809-2.788.016-.793-.791-.786-1.986.016-2.788.8-.801 1.996-.808 2.788-.016Zm11.952-11.952c.792.792.785 1.987-.016 2.788-.801.801-1.996.808-2.788.016-.792-.792-.785-1.987.016-2.788.801-.801 1.996-.808 2.788-.016Zm11.952-11.952c.792.792.785 1.987-.016 2.788-.801.801-1.996.808-2.788.016-.792-.792-.785-1.987.016-2.788.734-.735 1.996-.808 2.788-.016ZM14.483 165.162c.792.792.785 1.987-.016 2.788-.801.801-1.996.808-2.788.016-.792-.792-.785-1.987.016-2.788a1.983 1.983 0 0 1 2.788-.016Zm11.952-11.952c.792.792.785 1.987-.016 2.788-.801.801-1.996.808-2.788.016-.792-.792-.785-1.987.016-2.788.734-.735 2.062-.742 2.788-.016Zm11.885-11.886c.793.792.786 1.987-.016 2.788-.8.801-1.996.808-2.788.016-.792-.792-.785-1.987.016-2.788a1.983 1.983 0 0 1 2.789-.016Zm11.953-11.952c.792.792.785 1.987-.016 2.788-.802.801-1.997.808-2.789.016s-.785-1.987.016-2.788a1.983 1.983 0 0 1 2.789-.016Zm11.952-11.952c.792.792.785 1.987-.016 2.788-.801.801-1.996.808-2.789.016-.791-.792-.785-1.987.017-2.788.734-.735 2.062-.742 2.788-.016Zm11.952-11.953c.792.793.785 1.987-.016 2.789-.801.801-1.996.808-2.788.016-.792-.792-.785-1.987.016-2.788a1.982 1.982 0 0 1 2.788-.017Zm11.886-11.884c.791.792.785 1.987-.017 2.788-.8.801-1.996.808-2.788.016-.792-.792-.785-1.987.016-2.788a1.983 1.983 0 0 1 2.788-.016ZM98.015 81.63c.792.793.785 1.988-.016 2.789-.802.801-1.997.808-2.789.016s-.785-1.987.016-2.788a1.983 1.983 0 0 1 2.789-.017Zm11.952-11.952c.792.792.785 1.987-.016 2.789-.802.8-1.997.808-2.789.016s-.785-1.987.016-2.788c.735-.735 2.063-.743 2.789-.017Z"/></g><defs><clipPath id="a"><path fill="#fff" transform="rotate(-45 89.041 119.405)" d="M0 0h139v101H0z"/></clipPath></defs></svg>