<svg width="110" height="230" fill="none" xmlns="http://www.w3.org/2000/svg"><g opacity=".12" clip-path="url(#a)" fill="#FFCF2D"><path d="M115.079 0C51.462 0 0 51.462 0 115.079c0 63.459 51.462 115.079 115.079 115.079 63.459 0 115.079-51.462 115.079-115.079C230 51.462 178.538 0 115.079 0Zm0 222.739c-59.513 0-107.66-48.147-107.66-107.66S55.566 7.419 115.08 7.419s107.66 48.147 107.66 107.66c0 59.355-48.305 107.66-107.66 107.66Z"/><path d="M115.079 24.783c-49.725 0-90.137 40.412-90.137 90.137 0 49.726 40.412 90.138 90.137 90.138 49.726 0 90.137-40.254 90.137-89.98 0-49.883-40.411-90.295-90.137-90.295Zm0 166.541c-42.148 0-76.403-34.255-76.403-76.404 0-42.148 34.255-76.403 76.403-76.403s76.404 34.255 76.404 76.403c0 42.149-34.256 76.404-76.404 76.404Z"/></g><defs><clipPath id="a"><path fill="#fff" d="M0 0h230v230H0z"/></clipPath></defs></svg>