<svg xmlns="http://www.w3.org/2000/svg" width="24" height="24" xml:space="preserve"><path d="M20 24H4c-2.2 0-4-1.8-4-4V4c0-2.2 1.8-4 4-4h16c2.2 0 4 1.8 4 4v16c0 2.2-1.8 4-4 4zM4 2c-1.1 0-2 .9-2 2v16c0 1.1.9 2 2 2h16c1.1 0 2-.9 2-2V4c0-1.1-.9-2-2-2H4z"/><path d="M8 24c-.6 0-1-.4-1-1V1c0-.6.4-1 1-1s1 .4 1 1v22c0 .6-.4 1-1 1zm9-11c-.3 0-.5-.1-.7-.3l-3-3c-.4-.4-.4-1 0-1.4s1-.4 1.4 0l3 3c.4.4.4 1 0 1.4-.2.2-.4.3-.7.3z"/><path d="M14 16c-.3 0-.5-.1-.7-.3-.4-.4-.4-1 0-1.4l3-3c.4-.4 1-.4 1.4 0s.4 1 0 1.4l-3 3c-.2.2-.4.3-.7.3z"/></svg>