<svg width="216" height="203" viewBox="0 0 216 203" fill="none" xmlns="http://www.w3.org/2000/svg">
<g opacity="0.8" clip-path="url(#clip0_2234_9590)">
<path d="M34.0829 141.335C35.2502 142.232 35.4507 143.783 34.5507 144.954C33.6506 146.126 32.1002 146.331 30.9329 145.434C29.7656 144.537 29.5651 142.986 30.4652 141.815C31.3652 140.644 33.0129 140.513 34.0829 141.335Z" fill="#FFCF2D"/>
<path d="M47.5082 123.864C48.6755 124.761 48.876 126.312 47.9759 127.484C47.0759 128.655 45.5255 128.86 44.3582 127.963C43.1909 127.066 42.9904 125.515 43.8905 124.344C44.7155 123.27 46.4382 123.042 47.5082 123.864Z" fill="#FFCF2D"/>
<path d="M60.8583 106.492C62.0256 107.389 62.2261 108.94 61.326 110.112C60.426 111.283 58.8756 111.488 57.7083 110.591C56.541 109.694 56.3405 108.143 57.2406 106.972C58.1406 105.801 59.7883 105.67 60.8583 106.492Z" fill="#FFCF2D"/>
<path d="M74.2836 89.0225C75.4509 89.9195 75.6514 91.4707 74.7513 92.6418C73.8513 93.813 72.3008 94.0186 71.1336 93.1216C69.9663 92.2245 69.7658 90.6734 70.6659 89.5022C71.5659 88.3311 73.2136 88.2002 74.2836 89.0225Z" fill="#FFCF2D"/>
<path d="M87.7089 71.5528C88.8762 72.4498 89.0766 74.001 88.1766 75.1721C87.2766 76.3433 85.7261 76.5489 84.5589 75.6518C83.3916 74.7548 83.1911 73.2037 84.0911 72.0325C84.9162 70.9589 86.6389 70.7305 87.7089 71.5528Z" fill="#FFCF2D"/>
<path d="M101.134 54.0831C102.301 54.9801 102.502 56.5312 101.602 57.7024C100.702 58.8736 99.1514 59.0792 97.9841 58.1821C96.8169 57.2851 96.6164 55.7339 97.5164 54.5628C98.4165 53.3916 100.064 53.2608 101.134 54.0831Z" fill="#FFCF2D"/>
<path d="M114.484 36.711C115.652 37.608 115.852 39.1592 114.952 40.3303C114.052 41.5015 112.502 41.7071 111.334 40.81C110.167 39.913 109.967 38.3619 110.867 37.1907C111.767 36.0195 113.414 35.8887 114.484 36.711Z" fill="#FFCF2D"/>
<path d="M127.91 19.2413C129.077 20.1383 129.277 21.6894 128.377 22.8606C127.477 24.0318 125.927 24.2374 124.76 23.3403C123.592 22.4433 123.392 20.8921 124.292 19.721C125.192 18.5498 126.84 18.419 127.91 19.2413Z" fill="#FFCF2D"/>
<path d="M141.335 1.77155C142.502 2.66858 142.703 4.21972 141.803 5.39088C140.903 6.56203 139.352 6.76763 138.185 5.87059C137.018 4.97356 136.817 3.42241 137.717 2.25125C138.542 1.17769 140.265 0.949264 141.335 1.77155Z" fill="#FFCF2D"/>
<path d="M48.5766 152.473C49.7439 153.37 49.9443 154.921 49.0443 156.092C48.1443 157.263 46.5938 157.469 45.4265 156.572C44.2593 155.675 44.0588 154.124 44.9588 152.952C45.8588 151.781 47.4093 151.576 48.5766 152.473Z" fill="#FFCF2D"/>
<path d="M62.0019 135.003C63.1692 135.9 63.3696 137.451 62.4696 138.622C61.5696 139.793 60.0191 139.999 58.8518 139.102C57.6845 138.205 57.4841 136.654 58.3841 135.483C59.2091 134.409 60.8346 134.106 62.0019 135.003Z" fill="#FFCF2D"/>
<path d="M75.352 117.631C76.5193 118.528 76.7197 120.079 75.8197 121.25C74.9197 122.421 73.3692 122.627 72.2019 121.73C71.0346 120.833 70.8342 119.282 71.7342 118.111C72.6342 116.939 74.1847 116.734 75.352 117.631Z" fill="#FFCF2D"/>
<path d="M88.7773 100.161C89.9446 101.058 90.145 102.609 89.245 103.781C88.345 104.952 86.7945 105.157 85.6272 104.26C84.4599 103.363 84.2595 101.812 85.1595 100.641C86.0595 99.4697 87.61 99.2641 88.7773 100.161Z" fill="#FFCF2D"/>
<path d="M102.203 82.6905C103.37 83.5875 103.57 85.1387 102.67 86.3098C101.77 87.481 100.22 87.6866 99.0525 86.7895C97.8852 85.8925 97.6848 84.3414 98.5848 83.1702C99.4098 82.0966 101.035 81.7934 102.203 82.6905Z" fill="#FFCF2D"/>
<path d="M115.628 65.2208C116.795 66.1178 116.996 67.6689 116.096 68.8401C115.196 70.0113 113.645 70.2169 112.478 69.3198C111.311 68.4228 111.11 66.8716 112.01 65.7005C112.91 64.5293 114.461 64.3237 115.628 65.2208Z" fill="#FFCF2D"/>
<path d="M128.978 47.8487C130.145 48.7457 130.346 50.2969 129.446 51.468C128.546 52.6392 126.995 52.8448 125.828 51.9477C124.661 51.0507 124.46 49.4996 125.36 48.3284C126.26 47.1572 127.811 46.9517 128.978 47.8487Z" fill="#FFCF2D"/>
<path d="M142.403 30.3789C143.571 31.276 143.771 32.8271 142.871 33.9983C141.971 35.1695 140.42 35.3751 139.253 34.478C138.086 33.581 137.885 32.0298 138.785 30.8587C139.685 29.6875 141.236 29.4819 142.403 30.3789Z" fill="#FFCF2D"/>
<path d="M155.829 12.9092C156.996 13.8063 157.196 15.3574 156.296 16.5286C155.396 17.6997 153.846 17.9053 152.678 17.0083C151.511 16.1113 151.311 14.5601 152.211 13.3889C153.036 12.3154 154.661 12.0122 155.829 12.9092Z" fill="#FFCF2D"/>
<path d="M5.1928 119.133C6.36008 120.03 6.56053 121.581 5.66052 122.752C4.7605 123.923 3.21003 124.129 2.04275 123.232C0.875462 122.335 0.675012 120.784 1.57503 119.613C2.47504 118.441 4.02552 118.236 5.1928 119.133Z" fill="#FFCF2D"/>
<path d="M18.6181 101.663C19.7854 102.56 19.9858 104.111 19.0858 105.282C18.1858 106.454 16.6353 106.659 15.468 105.762C14.3008 104.865 14.1003 103.314 15.0003 102.143C15.8253 101.069 17.4508 100.766 18.6181 101.663Z" fill="#FFCF2D"/>
<path d="M31.9682 84.2911C33.1355 85.1881 33.3359 86.7392 32.4359 87.9104C31.5359 89.0816 29.9854 89.2872 28.8181 88.3901C27.6509 87.4931 27.5254 85.8443 28.3504 84.7708C29.2504 83.5996 30.8009 83.394 31.9682 84.2911Z" fill="#FFCF2D"/>
<path d="M45.3935 66.8213C46.5608 67.7184 46.7612 69.2695 45.8612 70.4407C44.9612 71.6118 43.4107 71.8174 42.2434 70.9204C41.0761 70.0234 40.9507 68.3746 41.7757 67.3011C42.6007 66.2275 44.2262 65.9243 45.3935 66.8213Z" fill="#FFCF2D"/>
<path d="M58.8188 49.3516C59.9861 50.2486 60.1865 51.7998 59.2865 52.971C58.3865 54.1421 56.836 54.3477 55.6687 53.4507C54.5014 52.5536 54.301 51.0025 55.201 49.8313C56.026 48.7578 57.6515 48.4546 58.8188 49.3516Z" fill="#FFCF2D"/>
<path d="M72.2441 31.8809C73.4114 32.7779 73.6118 34.3291 72.7118 35.5002C71.8118 36.6714 70.2613 36.877 69.094 35.98C67.9267 35.0829 67.7263 33.5318 68.6263 32.3606C69.5263 31.1895 71.0768 30.9839 72.2441 31.8809Z" fill="#FFCF2D"/>
<path d="M85.5942 14.5088C86.7614 15.4059 86.9619 16.957 86.0619 18.1282C85.1619 19.2993 83.6114 19.5049 82.4441 18.6079C81.2768 17.7109 81.0764 16.1597 81.9764 14.9886C82.8764 13.8174 84.4269 13.6118 85.5942 14.5088Z" fill="#FFCF2D"/>
<path d="M99.0195 -2.9609C100.187 -2.06386 100.387 -0.512708 99.4872 0.658453C98.5872 1.82961 97.0367 2.03521 95.8694 1.13817C94.7021 0.241136 94.5017 -1.31001 95.4017 -2.48117C96.3017 -3.65233 97.8522 -3.85793 99.0195 -2.9609Z" fill="#FFCF2D"/>
<path d="M19.6865 130.272C20.8537 131.169 21.0542 132.72 20.1542 133.891C19.2542 135.062 17.6064 135.193 16.5364 134.371C15.3691 133.474 15.1687 131.922 16.0687 130.751C16.9687 129.58 18.5192 129.374 19.6865 130.272Z" fill="#FFCF2D"/>
<path d="M33.1117 112.801C34.279 113.698 34.4795 115.249 33.5795 116.42C32.6794 117.591 31.129 117.797 29.9617 116.9C28.7944 116.003 28.594 114.452 29.494 113.281C30.319 112.207 31.9445 111.904 33.1117 112.801Z" fill="#FFCF2D"/>
<path d="M46.4618 95.4288C47.6291 96.3258 47.8296 97.8769 46.9296 99.0481C46.0295 100.219 44.4791 100.425 43.3118 99.5278C42.1445 98.6308 41.9441 97.0796 42.8441 95.9085C43.7441 94.7373 45.2946 94.5317 46.4618 95.4288Z" fill="#FFCF2D"/>
<path d="M59.8871 77.959C61.0544 78.8561 61.2549 80.4072 60.3549 81.5784C59.4548 82.7495 57.9044 82.9551 56.7371 82.0581C55.5698 81.1611 55.3693 79.6099 56.2694 78.4387C57.1694 77.2676 58.7199 77.062 59.8871 77.959Z" fill="#FFCF2D"/>
<path d="M73.3124 60.4893C74.4797 61.3863 74.6802 62.9375 73.7801 64.1086C72.8801 65.2798 71.3297 65.4854 70.1624 64.5884C68.9951 63.6913 68.7946 62.1402 69.6947 60.969C70.5197 59.8955 72.1451 59.5923 73.3124 60.4893Z" fill="#FFCF2D"/>
<path d="M86.7377 43.0196C87.905 43.9166 88.1055 45.4678 87.2054 46.6389C86.3054 47.8101 84.7549 48.0157 83.5877 47.1186C82.4204 46.2216 82.2199 44.6705 83.1199 43.4993C84.02 42.3281 85.5704 42.1225 86.7377 43.0196Z" fill="#FFCF2D"/>
<path d="M100.088 25.6475C101.255 26.5445 101.456 28.0957 100.556 29.2669C99.6555 30.438 98.105 30.6436 96.9378 29.7466C95.7705 28.8495 95.57 27.2984 96.47 26.1272C97.3701 24.9561 98.9205 24.7505 100.088 25.6475Z" fill="#FFCF2D"/>
<path d="M113.513 8.17777C114.68 9.07481 114.881 10.626 113.981 11.7971C113.081 12.9683 111.53 13.1739 110.363 12.2768C109.196 11.3798 108.995 9.82866 109.895 8.6575C110.795 7.48634 112.346 7.28074 113.513 8.17777Z" fill="#FFCF2D"/>
<path d="M62.9736 163.536C64.1408 164.433 64.3413 165.984 63.4413 167.156C62.5413 168.327 60.9908 168.532 59.8235 167.635C58.6562 166.738 58.4558 165.187 59.3558 164.016C60.2558 162.845 61.9036 162.714 62.9736 163.536Z" fill="#FFCF2D"/>
<path d="M76.3989 146.066C77.5661 146.963 77.7666 148.515 76.8666 149.686C75.9665 150.857 74.4161 151.063 73.2488 150.166C72.0815 149.268 71.8811 147.717 72.7811 146.546C73.6061 145.473 75.3288 145.244 76.3989 146.066Z" fill="#FFCF2D"/>
<path d="M89.749 128.694C90.9162 129.591 91.1167 131.143 90.2167 132.314C89.3167 133.485 87.7662 133.69 86.5989 132.793C85.4316 131.896 85.2312 130.345 86.1312 129.174C87.0312 128.003 88.6789 127.872 89.749 128.694Z" fill="#FFCF2D"/>
<path d="M103.174 111.225C104.342 112.122 104.542 113.673 103.642 114.844C102.742 116.015 101.191 116.221 100.024 115.324C98.8569 114.427 98.6565 112.876 99.5565 111.704C100.456 110.533 102.104 110.402 103.174 111.225Z" fill="#FFCF2D"/>
<path d="M116.6 93.7549C117.767 94.652 117.967 96.2031 117.067 97.3743C116.167 98.5454 114.617 98.751 113.449 97.854C112.282 96.957 112.082 95.4058 112.982 94.2346C113.807 93.1611 115.53 92.9326 116.6 93.7549Z" fill="#FFCF2D"/>
<path d="M130.025 76.2842C131.192 77.1813 131.393 78.7324 130.493 79.9036C129.593 81.0747 128.042 81.2803 126.875 80.3833C125.707 79.4863 125.507 77.9351 126.407 76.7639C127.307 75.5928 128.955 75.4619 130.025 76.2842Z" fill="#FFCF2D"/>
<path d="M143.375 58.9121C144.542 59.8092 144.743 61.3603 143.843 62.5315C142.943 63.7027 141.392 63.9083 140.225 63.0112C139.058 62.1142 138.857 60.563 139.757 59.3919C140.657 58.2207 142.305 58.0899 143.375 58.9121Z" fill="#FFCF2D"/>
<path d="M156.8 41.4424C157.968 42.3395 158.168 43.8906 157.268 45.0618C156.368 46.2329 154.817 46.4385 153.65 45.5415C152.483 44.6445 152.282 43.0933 153.182 41.9221C154.082 40.751 155.73 40.6201 156.8 41.4424Z" fill="#FFCF2D"/>
<path d="M170.226 23.9727C171.393 24.8697 171.593 26.4209 170.693 27.592C169.793 28.7632 168.243 28.9688 167.075 28.0718C165.908 27.1747 165.708 25.6236 166.608 24.4524C167.433 23.3789 169.155 23.1504 170.226 23.9727Z" fill="#FFCF2D"/>
<path d="M77.4672 174.674C78.6345 175.571 78.8349 177.122 77.9349 178.293C77.0349 179.464 75.4844 179.67 74.3172 178.773C73.1499 177.876 72.9494 176.325 73.8494 175.154C74.7495 173.982 76.2999 173.777 77.4672 174.674Z" fill="#FFCF2D"/>
<path d="M90.8925 157.204C92.0598 158.101 92.2602 159.652 91.3602 160.823C90.4602 161.995 88.9097 162.2 87.7424 161.303C86.5752 160.406 86.3747 158.855 87.2747 157.684C88.0998 156.61 89.7252 156.307 90.8925 157.204Z" fill="#FFCF2D"/>
<path d="M104.243 139.832C105.41 140.729 105.61 142.28 104.71 143.451C103.81 144.623 102.26 144.828 101.093 143.931C99.9253 143.034 99.7248 141.483 100.625 140.312C101.525 139.141 103.075 138.935 104.243 139.832Z" fill="#FFCF2D"/>
<path d="M118.136 125.982C119.005 124.85 118.796 123.229 117.668 122.362C116.54 121.495 114.92 121.71 114.05 122.842C113.18 123.974 113.39 125.594 114.518 126.461C115.646 127.328 117.266 127.114 118.136 125.982Z" fill="#FFCF2D"/>
<path d="M131.093 104.893C132.26 105.79 132.461 107.341 131.561 108.512C130.661 109.683 129.11 109.889 127.943 108.992C126.776 108.095 126.575 106.544 127.475 105.372C128.3 104.299 129.926 103.996 131.093 104.893Z" fill="#FFCF2D"/>
<path d="M144.518 87.4229C145.686 88.3199 145.886 89.8711 144.986 91.0422C144.086 92.2134 142.536 92.419 141.368 91.522C140.201 90.6249 140.001 89.0738 140.901 87.9026C141.801 86.7315 143.351 86.5259 144.518 87.4229Z" fill="#FFCF2D"/>
<path d="M157.869 70.0508C159.036 70.9479 159.236 72.499 158.336 73.6702C157.436 74.8413 155.886 75.0469 154.719 74.1499C153.551 73.2529 153.351 71.7017 154.251 70.5305C155.151 69.3594 156.701 69.1538 157.869 70.0508Z" fill="#FFCF2D"/>
<path d="M171.762 56.2004C172.631 55.0685 172.422 53.4481 171.294 52.5811C170.166 51.7141 168.546 51.9289 167.676 53.0608C166.806 54.1927 167.016 55.8132 168.144 56.6802C169.272 57.5471 170.892 57.3324 171.762 56.2004Z" fill="#FFCF2D"/>
<path d="M184.719 35.1114C185.886 36.0084 186.087 37.5595 185.187 38.7307C184.287 39.9019 182.736 40.1075 181.569 39.2104C180.402 38.3134 180.201 36.7622 181.101 35.5911C181.926 34.5175 183.552 34.2143 184.719 35.1114Z" fill="#FFCF2D"/>
<path d="M91.9609 185.813C93.1282 186.71 93.3286 188.261 92.4286 189.432C91.5286 190.603 89.9781 190.809 88.8108 189.912C87.6435 189.015 87.4431 187.463 88.3431 186.292C89.2431 185.121 90.7936 184.916 91.9609 185.813Z" fill="#FFCF2D"/>
<path d="M105.386 168.343C106.553 169.24 106.754 170.791 105.854 171.962C104.954 173.133 103.403 173.339 102.236 172.442C101.069 171.545 100.868 169.994 101.768 168.823C102.593 167.749 104.219 167.446 105.386 168.343Z" fill="#FFCF2D"/>
<path d="M118.736 150.971C119.904 151.868 120.104 153.419 119.204 154.59C118.304 155.761 116.753 155.967 115.586 155.07C114.419 154.173 114.218 152.622 115.118 151.45C116.018 150.279 117.569 150.074 118.736 150.971Z" fill="#FFCF2D"/>
<path d="M132.162 133.501C133.329 134.398 133.529 135.949 132.629 137.12C131.729 138.292 130.179 138.497 129.012 137.6C127.844 136.703 127.644 135.152 128.544 133.981C129.444 132.81 130.994 132.604 132.162 133.501Z" fill="#FFCF2D"/>
<path d="M145.587 116.031C146.754 116.928 146.955 118.479 146.055 119.651C145.155 120.822 143.604 121.027 142.437 120.13C141.27 119.233 141.069 117.682 141.969 116.511C142.794 115.437 144.42 115.134 145.587 116.031Z" fill="#FFCF2D"/>
<path d="M159.012 98.5606C160.179 99.4576 160.38 101.009 159.48 102.18C158.58 103.351 157.029 103.557 155.862 102.66C154.695 101.763 154.494 100.211 155.394 99.0403C156.294 97.8692 157.845 97.6636 159.012 98.5606Z" fill="#FFCF2D"/>
<path d="M172.362 81.1885C173.53 82.0856 173.73 83.6367 172.83 84.8079C171.93 85.979 170.379 86.1846 169.212 85.2876C168.045 84.3906 167.844 82.8394 168.744 81.6682C169.644 80.4971 171.195 80.2915 172.362 81.1885Z" fill="#FFCF2D"/>
<path d="M185.788 63.7188C186.955 64.6158 187.155 66.167 186.255 67.3381C185.355 68.5093 183.805 68.7149 182.637 67.8179C181.47 66.9208 181.27 65.3697 182.17 64.1985C183.07 63.0274 184.62 62.8218 185.788 63.7188Z" fill="#FFCF2D"/>
<path d="M199.213 46.2491C200.38 47.1461 200.581 48.6973 199.681 49.8684C198.781 51.0396 197.23 51.2452 196.063 50.3481C194.895 49.4511 194.695 47.8999 195.595 46.7288C196.42 45.6552 198.046 45.352 199.213 46.2491Z" fill="#FFCF2D"/>
<path d="M106.357 196.876C107.525 197.773 107.725 199.324 106.825 200.495C105.925 201.667 104.375 201.872 103.207 200.975C102.04 200.078 101.84 198.527 102.74 197.356C103.64 196.185 105.287 196.054 106.357 196.876Z" fill="#FFCF2D"/>
<path d="M119.783 179.406C120.95 180.303 121.15 181.854 120.25 183.026C119.35 184.197 117.8 184.402 116.633 183.505C115.465 182.608 115.265 181.057 116.165 179.886C116.99 178.812 118.713 178.584 119.783 179.406Z" fill="#FFCF2D"/>
<path d="M133.133 162.034C134.3 162.931 134.5 164.482 133.6 165.654C132.7 166.825 131.15 167.03 129.983 166.133C128.815 165.236 128.615 163.685 129.515 162.514C130.415 161.343 132.063 161.212 133.133 162.034Z" fill="#FFCF2D"/>
<path d="M146.558 144.564C147.725 145.462 147.926 147.013 147.026 148.184C146.126 149.355 144.575 149.561 143.408 148.664C142.241 147.767 142.04 146.215 142.94 145.044C143.84 143.873 145.488 143.742 146.558 144.564Z" fill="#FFCF2D"/>
<path d="M159.983 127.094C161.151 127.991 161.351 129.542 160.451 130.713C159.551 131.884 158.001 132.09 156.833 131.193C155.666 130.296 155.466 128.745 156.366 127.574C157.191 126.5 158.913 126.272 159.983 127.094Z" fill="#FFCF2D"/>
<path d="M173.409 109.624C174.576 110.521 174.776 112.072 173.876 113.243C172.976 114.415 171.426 114.62 170.259 113.723C169.091 112.826 168.891 111.275 169.791 110.104C170.691 108.933 172.339 108.802 173.409 109.624Z" fill="#FFCF2D"/>
<path d="M186.759 92.252C187.926 93.149 188.126 94.7002 187.226 95.8713C186.326 97.0425 184.776 97.2481 183.609 96.3511C182.441 95.454 182.241 93.9029 183.141 92.7317C184.041 91.5606 185.689 91.4297 186.759 92.252Z" fill="#FFCF2D"/>
<path d="M200.184 74.7823C201.351 75.6793 201.552 77.2305 200.652 78.4016C199.752 79.5728 198.201 79.7784 197.034 78.8813C195.867 77.9843 195.666 76.4332 196.566 75.262C197.466 74.0908 199.114 73.96 200.184 74.7823Z" fill="#FFCF2D"/>
<path d="M213.609 57.3126C214.777 58.2096 214.977 59.7607 214.077 60.9319C213.177 62.103 211.627 62.3086 210.459 61.4116C209.292 60.5146 209.092 58.9634 209.992 57.7923C210.817 56.7187 212.539 56.4903 213.609 57.3126Z" fill="#FFCF2D"/>
</g>
<defs>
<clipPath id="clip0_2234_9590">
<rect width="181.184" height="132.739" fill="white" transform="translate(0 121.662) rotate(-52.4584)"/>
</clipPath>
</defs>
</svg>
