<svg width="112" height="170" viewBox="0 0 112 170" fill="none" xmlns="http://www.w3.org/2000/svg">
<g opacity="0.8" clip-path="url(#clip0_2313_5537)">
<path d="M1.23092 80.3298C2.02299 81.1218 2.01609 82.3168 1.21483 83.1181C0.413576 83.9193 -0.781419 83.9262 -1.57348 83.1342C-2.36555 82.3421 -2.35865 81.1471 -1.55739 80.3458C-0.756133 79.5446 0.504862 79.6037 1.23092 80.3298Z" fill="#FFCF2D"/>
<path d="M13.1829 68.3776C13.975 69.1697 13.9681 70.3647 13.1669 71.1659C12.3656 71.9672 11.1706 71.9741 10.3785 71.182C9.58648 70.3899 9.59337 69.195 10.3946 68.3937C11.1291 67.6592 12.4569 67.6516 13.1829 68.3776Z" fill="#FFCF2D"/>
<path d="M25.1351 56.4254C25.9272 57.2175 25.9203 58.4125 25.119 59.2138C24.3178 60.015 23.1228 60.0219 22.3307 59.2299C21.5386 58.4378 21.5455 57.2428 22.3468 56.4415C23.148 55.6403 24.409 55.6994 25.1351 56.4254Z" fill="#FFCF2D"/>
<path d="M37.0205 44.5407C37.8125 45.3327 37.8057 46.5277 37.0044 47.329C36.2031 48.1303 35.0081 48.1372 34.2161 47.3451C33.424 46.553 33.4309 45.358 34.2322 44.5568C35.0334 43.7555 36.2944 43.8146 37.0205 44.5407Z" fill="#FFCF2D"/>
<path d="M48.9726 32.5885C49.7647 33.3806 49.7578 34.5756 48.9565 35.3769C48.1553 36.1781 46.9603 36.185 46.1682 35.3929C45.3762 34.6009 45.383 33.4059 46.1843 32.6046C46.9856 31.8034 48.2466 31.8625 48.9726 32.5885Z" fill="#FFCF2D"/>
<path d="M60.9248 20.6364C61.7168 21.4285 61.7099 22.6235 60.9087 23.4247C60.1074 24.226 58.9124 24.2329 58.1204 23.4408C57.3283 22.6487 57.3352 21.4537 58.1365 20.6525C58.8709 19.918 60.1987 19.9103 60.9248 20.6364Z" fill="#FFCF2D"/>
<path d="M-0.886386 102.117C-0.0943225 102.909 -0.101222 104.104 -0.902481 104.905C-1.70374 105.706 -2.89873 105.713 -3.69079 104.921C-4.48286 104.129 -4.47596 102.934 -3.6747 102.133C-2.87344 101.332 -1.67845 101.325 -0.886386 102.117Z" fill="#FFCF2D"/>
<path d="M11.0658 90.1647C11.8578 90.9568 11.8509 92.1518 11.0497 92.953C10.2484 93.7543 9.05342 93.7612 8.26136 92.9691C7.46929 92.1771 7.47619 90.9821 8.27745 90.1808C9.07871 89.3795 10.2737 89.3726 11.0658 90.1647Z" fill="#FFCF2D"/>
<path d="M23.0179 78.2126C23.81 79.0046 23.8031 80.1996 23.0018 81.0009C22.2006 81.8021 21.0056 81.809 20.2135 81.017C19.4214 80.2249 19.4283 79.0299 20.2296 78.2287C20.9641 77.4942 22.2258 77.4205 23.0179 78.2126Z" fill="#FFCF2D"/>
<path d="M34.9701 66.2604C35.7621 67.0525 35.7552 68.2475 34.954 69.0487C34.1527 69.85 32.9577 69.8569 32.1657 69.0648C31.3736 68.2728 31.3805 67.0778 32.1817 66.2765C32.983 65.4752 34.178 65.4683 34.9701 66.2604Z" fill="#FFCF2D"/>
<path d="M46.8554 54.3757C47.6475 55.1677 47.6406 56.3627 46.8394 57.164C46.0381 57.9652 44.8431 57.9721 44.051 57.1801C43.259 56.388 43.2659 55.193 44.0671 54.3917C44.8684 53.5905 46.0634 53.5836 46.8554 54.3757Z" fill="#FFCF2D"/>
<path d="M58.8075 42.4235C59.5995 43.2156 59.5926 44.4106 58.7914 45.2118C57.9901 46.0131 56.7951 46.02 56.0031 45.2279C55.211 44.4358 55.2179 43.2409 56.0191 42.4396C56.8204 41.6383 58.0154 41.6314 58.8075 42.4235Z" fill="#FFCF2D"/>
<path d="M70.7596 30.4714C71.5517 31.2634 71.5448 32.4584 70.7435 33.2597C69.9423 34.0609 68.7473 34.0678 67.9552 33.2758C67.1631 32.4837 67.17 31.2887 67.9713 30.4874C68.7058 29.753 69.9675 29.6793 70.7596 30.4714Z" fill="#FFCF2D"/>
<path d="M5.53159 36.8219C6.32366 37.614 6.31676 38.809 5.5155 39.6103C4.71423 40.4115 3.51924 40.4184 2.72718 39.6263C1.93511 38.8343 1.94201 37.6393 2.74327 36.838C3.54453 36.0368 4.73953 36.0299 5.53159 36.8219Z" fill="#FFCF2D"/>
<path d="M17.417 24.9372C18.209 25.7292 18.2021 26.9242 17.4009 27.7255C16.5996 28.5267 15.4046 28.5336 14.6126 27.7416C13.8205 26.9495 13.8274 25.7545 14.6286 24.9533C15.4299 24.152 16.6249 24.1451 17.417 24.9372Z" fill="#FFCF2D"/>
<path d="M29.3691 12.985C30.1612 13.7771 30.1543 14.9721 29.353 15.7733C28.5518 16.5746 27.3568 16.5815 26.5647 15.7894C25.7726 14.9974 25.7795 13.8024 26.5808 13.0011C27.3821 12.1999 28.577 12.193 29.3691 12.985Z" fill="#FFCF2D"/>
<path d="M41.3212 1.03289C42.1133 1.82495 42.1064 3.01993 41.3052 3.82119C40.5039 4.62245 39.3089 4.62935 38.5168 3.83728C37.7248 3.04522 37.7317 1.85022 38.5329 1.04897C39.2674 0.314481 40.5292 0.240821 41.3212 1.03289Z" fill="#FFCF2D"/>
<path d="M3.41415 58.6091C4.20621 59.4011 4.19932 60.5961 3.39806 61.3974C2.5968 62.1986 1.40181 62.2055 0.609746 61.4135C-0.182318 60.6214 -0.175424 59.4264 0.625835 58.6251C1.36032 57.8907 2.62209 57.817 3.41415 58.6091Z" fill="#FFCF2D"/>
<path d="M15.3663 46.6569C16.1584 47.449 16.1515 48.644 15.3502 49.4452C14.549 50.2465 13.354 50.2534 12.5619 49.4613C11.7698 48.6692 11.7767 47.4742 12.578 46.673C13.3793 45.8717 14.5742 45.8648 15.3663 46.6569Z" fill="#FFCF2D"/>
<path d="M27.2517 34.7721C28.0437 35.5642 28.0369 36.7592 27.2356 37.5604C26.4343 38.3617 25.2393 38.3686 24.4473 37.5765C23.6552 36.7845 23.6621 35.5895 24.4634 34.7882C25.2646 33.987 26.4596 33.9801 27.2517 34.7721Z" fill="#FFCF2D"/>
<path d="M39.2038 22.82C39.9959 23.612 39.989 24.807 39.1877 25.6083C38.3865 26.4096 37.1915 26.4165 36.3994 25.6244C35.6074 24.8323 35.6143 23.6373 36.4155 22.8361C37.2168 22.0348 38.4118 22.0279 39.2038 22.82Z" fill="#FFCF2D"/>
<path d="M51.156 10.8678C51.948 11.6599 51.9411 12.8549 51.1399 13.6562C50.3386 14.4574 49.1436 14.4643 48.3516 13.6722C47.5595 12.8802 47.5664 11.6852 48.3677 10.8839C49.1021 10.1494 50.3639 10.0758 51.156 10.8678Z" fill="#FFCF2D"/>
<path d="M8.88254 111.886C9.6746 112.678 9.6677 113.873 8.86644 114.675C8.06518 115.476 6.87019 115.483 6.07813 114.691C5.28606 113.899 5.29296 112.704 6.09422 111.902C6.89548 111.101 8.15648 111.16 8.88254 111.886Z" fill="#FFCF2D"/>
<path d="M20.8346 99.9342C21.6266 100.726 21.6197 101.921 20.8185 102.723C20.0172 103.524 18.8222 103.531 18.0302 102.739C17.2381 101.947 17.245 100.752 18.0462 99.9503C18.8475 99.1491 20.1085 99.2082 20.8346 99.9342Z" fill="#FFCF2D"/>
<path d="M32.7867 87.9821C33.5788 88.7742 33.5719 89.9692 32.7706 90.7704C31.9694 91.5717 30.7744 91.5786 29.9823 90.7865C29.1902 89.9944 29.1971 88.7994 29.9984 87.9982C30.7329 87.2637 32.0606 87.256 32.7867 87.9821Z" fill="#FFCF2D"/>
<path d="M44.7389 76.0299C45.5309 76.822 45.524 78.017 44.7228 78.8183C43.9215 79.6195 42.7265 79.6264 41.9345 78.8344C41.1424 78.0423 41.1493 76.8473 41.9505 76.046C42.7518 75.2448 44.0128 75.3039 44.7389 76.0299Z" fill="#FFCF2D"/>
<path d="M56.6242 64.1442C57.4163 64.9363 57.4094 66.1313 56.6081 66.9325C55.8069 67.7338 54.6119 67.7407 53.8198 66.9486C53.0278 66.1565 53.0347 64.9616 53.8359 64.1603C54.6372 63.359 55.8982 63.4181 56.6242 64.1442Z" fill="#FFCF2D"/>
<path d="M68.5764 52.192C69.3685 52.9841 69.3615 54.1791 68.5603 54.9804C67.759 55.7816 66.564 55.7885 65.772 54.9965C64.9799 54.2044 64.9868 53.0094 65.7881 52.2081C66.5893 51.4069 67.8503 51.466 68.5764 52.192Z" fill="#FFCF2D"/>
<path d="M80.5285 40.2399C81.3206 41.032 81.3137 42.227 80.5124 43.0282C79.7112 43.8295 78.5162 43.8364 77.7241 43.0443C76.9321 42.2523 76.939 41.0573 77.7402 40.256C78.4747 39.5215 79.8025 39.5139 80.5285 40.2399Z" fill="#FFCF2D"/>
<path d="M6.83175 133.606C7.62381 134.398 7.61692 135.593 6.81566 136.394C6.0144 137.196 4.81941 137.203 4.02734 136.411C3.23528 135.618 3.24218 134.423 4.04344 133.622C4.77793 132.888 6.03969 132.814 6.83175 133.606Z" fill="#FFCF2D"/>
<path d="M18.7171 121.72C19.5092 122.512 19.5023 123.707 18.701 124.509C17.8998 125.31 16.7048 125.317 15.9127 124.525C15.1207 123.733 15.1276 122.538 15.9288 121.736C16.7301 120.935 17.9251 120.928 18.7171 121.72Z" fill="#FFCF2D"/>
<path d="M30.6532 112.557C31.4276 111.782 31.4348 110.534 30.6693 109.768C29.9037 109.003 28.6554 109.01 27.881 109.784C27.1065 110.559 27.0993 111.807 27.8649 112.573C28.6304 113.338 29.8788 113.331 30.6532 112.557Z" fill="#FFCF2D"/>
<path d="M42.6213 97.8161C43.4134 98.6081 43.4065 99.8031 42.6052 100.604C41.8039 101.406 40.609 101.413 39.8169 100.62C39.0248 99.8284 39.0317 98.6334 39.833 97.8322C40.5675 97.0977 41.8292 97.024 42.6213 97.8161Z" fill="#FFCF2D"/>
<path d="M54.5736 85.8639C55.3656 86.656 55.3587 87.851 54.5575 88.6522C53.7562 89.4535 52.5612 89.4604 51.7692 88.6683C50.9771 87.8763 50.984 86.6813 51.7853 85.88C52.5865 85.0788 53.7815 85.0719 54.5736 85.8639Z" fill="#FFCF2D"/>
<path d="M66.459 73.9792C67.251 74.7712 67.2441 75.9662 66.4429 76.7675C65.6416 77.5687 64.4466 77.5756 63.6545 76.7836C62.8625 75.9915 62.8694 74.7965 63.6706 73.9953C64.4719 73.194 65.6669 73.1871 66.459 73.9792Z" fill="#FFCF2D"/>
<path d="M78.395 64.8153C79.1694 64.0409 79.1766 62.7925 78.4111 62.027C77.6456 61.2615 76.3972 61.2687 75.6228 62.0431C74.8484 62.8175 74.8412 64.0659 75.6067 64.8314C76.3722 65.5969 77.6206 65.5897 78.395 64.8153Z" fill="#FFCF2D"/>
<path d="M90.3631 50.0749C91.1552 50.8669 91.1483 52.0619 90.347 52.8632C89.5458 53.6644 88.3508 53.6713 87.5587 52.8793C86.7667 52.0872 86.7736 50.8922 87.5748 50.091C88.3093 49.3565 89.5711 49.2828 90.3631 50.0749Z" fill="#FFCF2D"/>
<path d="M4.71481 155.393C5.50688 156.185 5.49998 157.38 4.69872 158.182C3.89746 158.983 2.70247 158.99 1.91041 158.198C1.11834 157.406 1.12524 156.211 1.9265 155.409C2.72776 154.608 3.92275 154.601 4.71481 155.393Z" fill="#FFCF2D"/>
<path d="M16.667 143.441C17.459 144.233 17.4521 145.428 16.6509 146.229C15.8496 147.031 14.6546 147.038 13.8626 146.245C13.0705 145.453 13.0774 144.258 13.8786 143.457C14.6131 142.723 15.8749 142.649 16.667 143.441Z" fill="#FFCF2D"/>
<path d="M28.5522 131.556C29.3443 132.348 29.3374 133.543 28.5361 134.345C27.7349 135.146 26.5399 135.153 25.7478 134.361C24.9557 133.569 24.9626 132.374 25.7639 131.572C26.5652 130.771 27.7602 130.764 28.5522 131.556Z" fill="#FFCF2D"/>
<path d="M40.5044 119.603C41.2964 120.395 41.2895 121.59 40.4883 122.391C39.687 123.193 38.492 123.2 37.7 122.408C36.9079 121.616 36.9148 120.421 37.716 119.619C38.5173 118.818 39.7123 118.811 40.5044 119.603Z" fill="#FFCF2D"/>
<path d="M52.4565 107.652C53.2486 108.444 53.2417 109.639 52.4404 110.44C51.6392 111.242 50.4442 111.248 49.6521 110.456C48.86 109.664 48.8669 108.469 49.6682 107.668C50.4027 106.934 51.6644 106.86 52.4565 107.652Z" fill="#FFCF2D"/>
<path d="M64.4085 95.6989C65.2006 96.491 65.1937 97.6859 64.3924 98.4872C63.5912 99.2885 62.3962 99.2954 61.6041 98.5033C60.8121 97.7112 60.819 96.5162 61.6202 95.715C62.4215 94.9137 63.6165 94.9068 64.4085 95.6989Z" fill="#FFCF2D"/>
<path d="M76.2939 83.8141C77.086 84.6062 77.0791 85.8012 76.2778 86.6024C75.4766 87.4037 74.2816 87.4106 73.4895 86.6185C72.6974 85.8265 72.7043 84.6315 73.5056 83.8302C74.3069 83.029 75.5019 83.0221 76.2939 83.8141Z" fill="#FFCF2D"/>
<path d="M88.2461 71.862C89.0381 72.654 89.0312 73.849 88.23 74.6503C87.4287 75.4515 86.2337 75.4584 85.4417 74.6664C84.6496 73.8743 84.6565 72.6793 85.4577 71.8781C86.259 71.0768 87.454 71.0699 88.2461 71.862Z" fill="#FFCF2D"/>
<path d="M100.198 59.9098C100.99 60.7019 100.983 61.8969 100.182 62.6981C99.3809 63.4994 98.1859 63.5063 97.3938 62.7142C96.6017 61.9222 96.6086 60.7272 97.4099 59.9259C98.1444 59.1914 99.4061 59.1178 100.198 59.9098Z" fill="#FFCF2D"/>
<path d="M14.4832 165.162C15.2753 165.954 15.2684 167.149 14.4671 167.95C13.6659 168.751 12.4709 168.758 11.6788 167.966C10.8868 167.174 10.8937 165.979 11.6949 165.178C12.4962 164.377 13.7572 164.436 14.4832 165.162Z" fill="#FFCF2D"/>
<path d="M26.4353 153.21C27.2273 154.002 27.2204 155.197 26.4192 155.998C25.6179 156.799 24.4229 156.806 23.6309 156.014C22.8388 155.222 22.8457 154.027 23.647 153.226C24.3814 152.491 25.7092 152.484 26.4353 153.21Z" fill="#FFCF2D"/>
<path d="M38.3206 141.324C39.1127 142.116 39.1058 143.311 38.3045 144.112C37.5033 144.913 36.3083 144.92 35.5162 144.128C34.7242 143.336 34.7311 142.141 35.5323 141.34C36.3336 140.539 37.5946 140.598 38.3206 141.324Z" fill="#FFCF2D"/>
<path d="M50.2728 129.372C51.0649 130.164 51.058 131.359 50.2567 132.16C49.4554 132.961 48.2604 132.968 47.4684 132.176C46.6763 131.384 46.6832 130.189 47.4845 129.388C48.2857 128.587 49.5467 128.646 50.2728 129.372Z" fill="#FFCF2D"/>
<path d="M62.2249 117.42C63.017 118.212 63.0101 119.407 62.2088 120.208C61.4076 121.009 60.2126 121.016 59.4205 120.224C58.6285 119.432 58.6354 118.237 59.4366 117.436C60.1711 116.701 61.4989 116.694 62.2249 117.42Z" fill="#FFCF2D"/>
<path d="M74.1771 105.467C74.9691 106.26 74.9623 107.454 74.161 108.256C73.3597 109.057 72.1647 109.064 71.3727 108.272C70.5806 107.48 70.5875 106.285 71.3888 105.484C72.19 104.682 73.451 104.741 74.1771 105.467Z" fill="#FFCF2D"/>
<path d="M86.0625 93.5827C86.8545 94.3747 86.8476 95.5697 86.0464 96.371C85.2451 97.1722 84.0501 97.1791 83.2581 96.3871C82.466 95.595 82.4729 94.4 83.2742 93.5988C84.0754 92.7975 85.3364 92.8566 86.0625 93.5827Z" fill="#FFCF2D"/>
<path d="M98.0146 81.6305C98.8067 82.4226 98.7998 83.6176 97.9985 84.4188C97.1973 85.2201 96.0023 85.227 95.2102 84.4349C94.4181 83.6429 94.425 82.4479 95.2263 81.6466C96.0276 80.8454 97.2886 80.9045 98.0146 81.6305Z" fill="#FFCF2D"/>
<path d="M109.967 69.6784C110.759 70.4704 110.752 71.6654 109.951 72.4667C109.149 73.2679 107.954 73.2749 107.162 72.4828C106.37 71.6907 106.377 70.4957 107.178 69.6945C107.913 68.96 109.241 68.9523 109.967 69.6784Z" fill="#FFCF2D"/>
</g>
<defs>
<clipPath id="clip0_2313_5537">
<rect width="139" height="101" fill="white" transform="translate(-58.3528 97.9346) rotate(-45)"/>
</clipPath>
</defs>
</svg>
