<svg width="136" height="100" viewBox="0 0 136 100" fill="none" xmlns="http://www.w3.org/2000/svg">
<g opacity="0.8" clip-path="url(#clip0_2355_2274)">
<path d="M3.88043 29.3901C3.88043 30.4991 3.04891 31.3309 1.94022 31.3309C0.831522 31.3309 0 30.4991 0 29.3901C0 28.281 0.831522 27.4492 1.94022 27.4492C3.04891 27.4492 3.88043 28.3734 3.88043 29.3901Z" fill="#FFCF2D"/>
<path d="M20.4185 29.3901C20.4185 30.4991 19.587 31.3309 18.4783 31.3309C17.3696 31.3309 16.5381 30.4991 16.5381 29.3901C16.5381 28.281 17.3696 27.4492 18.4783 27.4492C19.4946 27.4492 20.4185 28.3734 20.4185 29.3901Z" fill="#FFCF2D"/>
<path d="M36.8641 29.3901C36.8641 30.4991 36.0325 31.3309 34.9239 31.3309C33.8152 31.3309 32.9836 30.4991 32.9836 29.3901C32.9836 28.281 33.8152 27.4492 34.9239 27.4492C36.0325 27.4492 36.8641 28.3734 36.8641 29.3901Z" fill="#FFCF2D"/>
<path d="M53.4022 29.3901C53.4022 30.4991 52.5706 31.3309 51.4619 31.3309C50.3533 31.3309 49.5217 30.4991 49.5217 29.3901C49.5217 28.281 50.3533 27.4492 51.4619 27.4492C52.5706 27.4492 53.4022 28.3734 53.4022 29.3901Z" fill="#FFCF2D"/>
<path d="M69.9402 29.3901C69.9402 30.4991 69.1087 31.3309 68 31.3309C66.8913 31.3309 66.0598 30.4991 66.0598 29.3901C66.0598 28.281 66.8913 27.4492 68 27.4492C69.0163 27.4492 69.9402 28.3734 69.9402 29.3901Z" fill="#FFCF2D"/>
<path d="M86.4783 29.3901C86.4783 30.4991 85.6468 31.3309 84.5381 31.3309C83.4294 31.3309 82.5979 30.4991 82.5979 29.3901C82.5979 28.281 83.4294 27.4492 84.5381 27.4492C85.6468 27.4492 86.4783 28.3734 86.4783 29.3901Z" fill="#FFCF2D"/>
<path d="M102.924 29.3901C102.924 30.4991 102.092 31.3309 100.984 31.3309C99.875 31.3309 99.0435 30.4991 99.0435 29.3901C99.0435 28.281 99.875 27.4492 100.984 27.4492C102.092 27.4492 102.924 28.3734 102.924 29.3901Z" fill="#FFCF2D"/>
<path d="M119.462 29.3901C119.462 30.4991 118.63 31.3309 117.522 31.3309C116.413 31.3309 115.582 30.4991 115.582 29.3901C115.582 28.281 116.413 27.4492 117.522 27.4492C118.63 27.4492 119.462 28.3734 119.462 29.3901Z" fill="#FFCF2D"/>
<path d="M136 29.3901C136 30.4991 135.169 31.3309 134.06 31.3309C132.951 31.3309 132.12 30.4991 132.12 29.3901C132.12 28.281 132.951 27.4492 134.06 27.4492C135.076 27.4492 136 28.3734 136 29.3901Z" fill="#FFCF2D"/>
<path d="M3.88043 43.1606C3.88043 44.2696 3.04891 45.1014 1.94022 45.1014C0.831522 45.1014 0 44.2696 0 43.1606C0 42.0515 0.831522 41.2197 1.94022 41.2197C3.04891 41.2197 3.88043 42.0515 3.88043 43.1606Z" fill="#FFCF2D"/>
<path d="M20.4185 43.1606C20.4185 44.2696 19.587 45.1014 18.4783 45.1014C17.3696 45.1014 16.5381 44.2696 16.5381 43.1606C16.5381 42.0515 17.3696 41.2197 18.4783 41.2197C19.4946 41.2197 20.4185 42.0515 20.4185 43.1606Z" fill="#FFCF2D"/>
<path d="M36.8641 43.1606C36.8641 44.2696 36.0326 45.1014 34.9239 45.1014C33.8152 45.1014 32.9836 44.2696 32.9836 43.1606C32.9836 42.0515 33.8152 41.2197 34.9239 41.2197C36.0326 41.2197 36.8641 42.0515 36.8641 43.1606Z" fill="#FFCF2D"/>
<path d="M53.4022 43.1606C53.4022 44.2696 52.5706 45.1014 51.4619 45.1014C50.3533 45.1014 49.5217 44.2696 49.5217 43.1606C49.5217 42.0515 50.3533 41.2197 51.4619 41.2197C52.5706 41.2197 53.4022 42.0515 53.4022 43.1606Z" fill="#FFCF2D"/>
<path d="M69.9402 43.1606C69.9402 44.2696 69.1087 45.1014 68 45.1014C66.8913 45.1014 66.0598 44.2696 66.0598 43.1606C66.0598 42.0515 66.8913 41.2197 68 41.2197C69.0163 41.2197 69.9402 42.0515 69.9402 43.1606Z" fill="#FFCF2D"/>
<path d="M86.4783 43.1606C86.4783 44.2696 85.6468 45.1014 84.5381 45.1014C83.4294 45.1014 82.5979 44.2696 82.5979 43.1606C82.5979 42.0515 83.4294 41.2197 84.5381 41.2197C85.6468 41.2197 86.4783 42.0515 86.4783 43.1606Z" fill="#FFCF2D"/>
<path d="M102.924 43.1606C102.924 44.2696 102.092 45.1014 100.984 45.1014C99.875 45.1014 99.0435 44.2696 99.0435 43.1606C99.0435 42.0515 99.875 41.2197 100.984 41.2197C102.092 41.2197 102.924 42.0515 102.924 43.1606Z" fill="#FFCF2D"/>
<path d="M119.462 43.1606C119.462 44.2696 118.63 45.1014 117.522 45.1014C116.413 45.1014 115.582 44.2696 115.582 43.1606C115.582 42.0515 116.413 41.2197 117.522 41.2197C118.63 41.2197 119.462 42.0515 119.462 43.1606Z" fill="#FFCF2D"/>
<path d="M136 43.1606C136 44.2696 135.169 45.1014 134.06 45.1014C132.951 45.1014 132.12 44.2696 132.12 43.1606C132.12 42.0515 132.951 41.2197 134.06 41.2197C135.076 41.2197 136 42.0515 136 43.1606Z" fill="#FFCF2D"/>
<path d="M3.88043 1.94085C3.88043 3.04991 3.04891 3.8817 1.94022 3.8817C0.831522 3.8817 0 3.04991 0 1.94085C0 0.831793 0.831522 0 1.94022 0C3.04891 0 3.88043 0.831793 3.88043 1.94085Z" fill="#FFCF2D"/>
<path d="M20.4185 1.94085C20.4185 3.04991 19.587 3.8817 18.4783 3.8817C17.3696 3.8817 16.5381 3.04991 16.5381 1.94085C16.5381 0.831793 17.3696 0 18.4783 0C19.4946 0 20.4185 0.831793 20.4185 1.94085Z" fill="#FFCF2D"/>
<path d="M36.8641 1.94085C36.8641 3.04991 36.0326 3.8817 34.9239 3.8817C33.8152 3.8817 32.9836 3.04991 32.9836 1.94085C32.9836 0.831793 33.9076 0 34.9239 0C36.0326 0 36.8641 0.831793 36.8641 1.94085Z" fill="#FFCF2D"/>
<path d="M53.4022 1.94085C53.4022 3.04991 52.5706 3.8817 51.4619 3.8817C50.3533 3.8817 49.5217 3.04991 49.5217 1.94085C49.5217 0.831793 50.4456 0 51.4619 0C52.4782 0 53.4022 0.831793 53.4022 1.94085Z" fill="#FFCF2D"/>
<path d="M69.9402 1.94085C69.9402 3.04991 69.1087 3.8817 68 3.8817C66.8913 3.8817 66.0598 3.04991 66.0598 1.94085C66.0598 0.831793 66.8913 0 68 0C69.0163 0 69.9402 0.831793 69.9402 1.94085Z" fill="#FFCF2D"/>
<path d="M86.4783 1.94085C86.4783 3.04991 85.6468 3.8817 84.5381 3.8817C83.4294 3.8817 82.5979 3.04991 82.5979 1.94085C82.5979 0.831793 83.4294 0 84.5381 0C85.6468 0 86.4783 0.831793 86.4783 1.94085Z" fill="#FFCF2D"/>
<path d="M102.924 1.94085C102.924 3.04991 102.092 3.8817 100.984 3.8817C99.875 3.8817 99.0435 3.04991 99.0435 1.94085C99.0435 0.831793 99.875 0 100.984 0C102.092 0 102.924 0.831793 102.924 1.94085Z" fill="#FFCF2D"/>
<path d="M119.462 1.94085C119.462 3.04991 118.63 3.8817 117.522 3.8817C116.413 3.8817 115.582 3.04991 115.582 1.94085C115.582 0.831793 116.413 0 117.522 0C118.63 0 119.462 0.831793 119.462 1.94085Z" fill="#FFCF2D"/>
<path d="M136 1.94085C136 3.04991 135.169 3.8817 134.06 3.8817C132.951 3.8817 132.12 3.04991 132.12 1.94085C132.12 0.831793 132.951 0 134.06 0C135.076 0 136 0.831793 136 1.94085Z" fill="#FFCF2D"/>
<path d="M3.88044 15.7114C3.88044 16.8204 3.04891 17.6522 1.94022 17.6522C0.831522 17.6522 0 16.728 0 15.7114C0 14.6023 0.831522 13.7705 1.94022 13.7705C3.04891 13.7705 3.88044 14.6023 3.88044 15.7114Z" fill="#FFCF2D"/>
<path d="M20.4185 15.7114C20.4185 16.8204 19.587 17.6522 18.4783 17.6522C17.3696 17.6522 16.5381 16.8204 16.5381 15.7114C16.5381 14.6023 17.3696 13.7705 18.4783 13.7705C19.4946 13.7705 20.4185 14.6023 20.4185 15.7114Z" fill="#FFCF2D"/>
<path d="M36.8641 15.7114C36.8641 16.8204 36.0326 17.6522 34.9239 17.6522C33.8152 17.6522 32.9836 16.8204 32.9836 15.7114C32.9836 14.6023 33.8152 13.7705 34.9239 13.7705C36.0326 13.7705 36.8641 14.6023 36.8641 15.7114Z" fill="#FFCF2D"/>
<path d="M53.4022 15.7114C53.4022 16.8204 52.5706 17.6522 51.4619 17.6522C50.3533 17.6522 49.5217 16.8204 49.5217 15.7114C49.5217 14.6023 50.3533 13.7705 51.4619 13.7705C52.5706 13.7705 53.4022 14.6023 53.4022 15.7114Z" fill="#FFCF2D"/>
<path d="M69.9402 15.7114C69.9402 16.8204 69.1087 17.6522 68 17.6522C66.8913 17.6522 66.0598 16.8204 66.0598 15.7114C66.0598 14.6023 66.8913 13.7705 68 13.7705C69.0163 13.7705 69.9402 14.6023 69.9402 15.7114Z" fill="#FFCF2D"/>
<path d="M86.4783 15.7114C86.4783 16.8204 85.6468 17.6522 84.5381 17.6522C83.4294 17.6522 82.5979 16.8204 82.5979 15.7114C82.5979 14.6023 83.4294 13.7705 84.5381 13.7705C85.6468 13.7705 86.4783 14.6023 86.4783 15.7114Z" fill="#FFCF2D"/>
<path d="M102.924 15.7114C102.924 16.8204 102.092 17.6522 100.984 17.6522C99.875 17.6522 99.0435 16.8204 99.0435 15.7114C99.0435 14.6023 99.875 13.7705 100.984 13.7705C102.092 13.7705 102.924 14.6023 102.924 15.7114Z" fill="#FFCF2D"/>
<path d="M119.462 15.7114C119.462 16.8204 118.63 17.6522 117.522 17.6522C116.413 17.6522 115.582 16.8204 115.582 15.7114C115.582 14.6023 116.413 13.7705 117.522 13.7705C118.63 13.7705 119.462 14.6023 119.462 15.7114Z" fill="#FFCF2D"/>
<path d="M136 15.7114C136 16.8204 135.169 17.6522 134.06 17.6522C132.951 17.6522 132.12 16.8204 132.12 15.7114C132.12 14.6023 132.951 13.7705 134.06 13.7705C135.076 13.7705 136 14.6023 136 15.7114Z" fill="#FFCF2D"/>
<path d="M3.88044 56.8393C3.88044 57.9483 3.04891 58.7801 1.94022 58.7801C0.831522 58.7801 0 57.9483 0 56.8393C0 55.7302 0.831522 54.8984 1.94022 54.8984C3.04891 54.8984 3.88044 55.8226 3.88044 56.8393Z" fill="#FFCF2D"/>
<path d="M20.4185 56.8393C20.4185 57.9483 19.587 58.7801 18.4783 58.7801C17.3696 58.7801 16.5381 57.9483 16.5381 56.8393C16.5381 55.7302 17.3696 54.8984 18.4783 54.8984C19.4946 54.8984 20.4185 55.8226 20.4185 56.8393Z" fill="#FFCF2D"/>
<path d="M36.8641 56.8393C36.8641 57.9483 36.0326 58.7801 34.9239 58.7801C33.8152 58.7801 32.9836 57.9483 32.9836 56.8393C32.9836 55.7302 33.8152 54.8984 34.9239 54.8984C36.0326 54.8984 36.8641 55.8226 36.8641 56.8393Z" fill="#FFCF2D"/>
<path d="M53.4022 56.8393C53.4022 57.9483 52.5706 58.7801 51.4619 58.7801C50.3533 58.7801 49.5217 57.9483 49.5217 56.8393C49.5217 55.7302 50.3533 54.8984 51.4619 54.8984C52.5706 54.8984 53.4022 55.8226 53.4022 56.8393Z" fill="#FFCF2D"/>
<path d="M69.9402 56.8393C69.9402 57.9483 69.1087 58.7801 68 58.7801C66.8913 58.7801 66.0598 57.9483 66.0598 56.8393C66.0598 55.7302 66.8913 54.8984 68 54.8984C69.0163 54.8984 69.9402 55.8226 69.9402 56.8393Z" fill="#FFCF2D"/>
<path d="M86.4783 56.8393C86.4783 57.9483 85.6468 58.7801 84.5381 58.7801C83.4294 58.7801 82.5979 57.9483 82.5979 56.8393C82.5979 55.7302 83.4294 54.8984 84.5381 54.8984C85.6468 54.8984 86.4783 55.8226 86.4783 56.8393Z" fill="#FFCF2D"/>
<path d="M102.924 56.8393C102.924 57.9483 102.092 58.7801 100.984 58.7801C99.875 58.7801 99.0435 57.9483 99.0435 56.8393C99.0435 55.7302 99.875 54.8984 100.984 54.8984C102.092 54.8984 102.924 55.8226 102.924 56.8393Z" fill="#FFCF2D"/>
<path d="M119.462 56.8393C119.462 57.9483 118.63 58.7801 117.522 58.7801C116.413 58.7801 115.582 57.9483 115.582 56.8393C115.582 55.7302 116.413 54.8984 117.522 54.8984C118.63 54.8984 119.462 55.8226 119.462 56.8393Z" fill="#FFCF2D"/>
<path d="M136 56.8393C136 57.9483 135.169 58.7801 134.06 58.7801C132.951 58.7801 132.12 57.9483 132.12 56.8393C132.12 55.7302 132.951 54.8984 134.06 54.8984C135.076 54.8984 136 55.8226 136 56.8393Z" fill="#FFCF2D"/>
<path d="M3.88043 70.6098C3.88043 71.7189 3.04891 72.5506 1.94022 72.5506C0.831522 72.5506 0 71.7189 0 70.6098C0 69.5007 0.831522 68.6689 1.94022 68.6689C3.04891 68.6689 3.88043 69.5007 3.88043 70.6098Z" fill="#FFCF2D"/>
<path d="M20.4185 70.6098C20.4185 71.7189 19.587 72.5506 18.4783 72.5506C17.3696 72.5506 16.5381 71.7189 16.5381 70.6098C16.5381 69.5007 17.3696 68.6689 18.4783 68.6689C19.4946 68.6689 20.4185 69.5007 20.4185 70.6098Z" fill="#FFCF2D"/>
<path d="M36.8641 70.6098C36.8641 71.7189 36.0326 72.5506 34.9239 72.5506C33.8152 72.5506 32.9836 71.7189 32.9836 70.6098C32.9836 69.5007 33.8152 68.6689 34.9239 68.6689C36.0326 68.6689 36.8641 69.5007 36.8641 70.6098Z" fill="#FFCF2D"/>
<path d="M51.4619 72.5506C52.5335 72.5506 53.4022 71.6817 53.4022 70.6098C53.4022 69.5379 52.5335 68.6689 51.4619 68.6689C50.3904 68.6689 49.5217 69.5379 49.5217 70.6098C49.5217 71.6817 50.3904 72.5506 51.4619 72.5506Z" fill="#FFCF2D"/>
<path d="M69.9402 70.6098C69.9402 71.7189 69.1087 72.5506 68 72.5506C66.8913 72.5506 66.0598 71.7189 66.0598 70.6098C66.0598 69.5007 66.8913 68.6689 68 68.6689C69.0163 68.6689 69.9402 69.5007 69.9402 70.6098Z" fill="#FFCF2D"/>
<path d="M86.4783 70.6098C86.4783 71.7189 85.6468 72.5506 84.5381 72.5506C83.4294 72.5506 82.5979 71.7189 82.5979 70.6098C82.5979 69.5007 83.4294 68.6689 84.5381 68.6689C85.6468 68.6689 86.4783 69.5007 86.4783 70.6098Z" fill="#FFCF2D"/>
<path d="M102.924 70.6098C102.924 71.7189 102.092 72.5506 100.984 72.5506C99.875 72.5506 99.0435 71.7189 99.0435 70.6098C99.0435 69.5007 99.875 68.6689 100.984 68.6689C102.092 68.6689 102.924 69.5007 102.924 70.6098Z" fill="#FFCF2D"/>
<path d="M117.522 72.5506C118.593 72.5506 119.462 71.6817 119.462 70.6098C119.462 69.5379 118.593 68.6689 117.522 68.6689C116.45 68.6689 115.582 69.5379 115.582 70.6098C115.582 71.6817 116.45 72.5506 117.522 72.5506Z" fill="#FFCF2D"/>
<path d="M136 70.6098C136 71.7189 135.169 72.5506 134.06 72.5506C132.951 72.5506 132.12 71.7189 132.12 70.6098C132.12 69.5007 132.951 68.6689 134.06 68.6689C135.076 68.6689 136 69.5007 136 70.6098Z" fill="#FFCF2D"/>
<path d="M3.88043 84.3813C3.88043 85.4903 3.04891 86.3221 1.94022 86.3221C0.831522 86.3221 0 85.4903 0 84.3813C0 83.2722 0.831522 82.4404 1.94022 82.4404C3.04891 82.4404 3.88043 83.2722 3.88043 84.3813Z" fill="#FFCF2D"/>
<path d="M20.4185 84.3813C20.4185 85.4903 19.587 86.3221 18.4783 86.3221C17.3696 86.3221 16.5381 85.4903 16.5381 84.3813C16.5381 83.2722 17.3696 82.4404 18.4783 82.4404C19.4946 82.4404 20.4185 83.2722 20.4185 84.3813Z" fill="#FFCF2D"/>
<path d="M36.8641 84.3813C36.8641 85.4903 36.0326 86.3221 34.9239 86.3221C33.8152 86.3221 32.9836 85.4903 32.9836 84.3813C32.9836 83.2722 33.8152 82.4404 34.9239 82.4404C36.0326 82.4404 36.8641 83.2722 36.8641 84.3813Z" fill="#FFCF2D"/>
<path d="M53.4022 84.3813C53.4022 85.4903 52.5706 86.3221 51.4619 86.3221C50.3533 86.3221 49.5217 85.4903 49.5217 84.3813C49.5217 83.2722 50.3533 82.4404 51.4619 82.4404C52.5706 82.4404 53.4022 83.2722 53.4022 84.3813Z" fill="#FFCF2D"/>
<path d="M69.9402 84.3813C69.9402 85.4903 69.1087 86.3221 68 86.3221C66.8913 86.3221 66.0598 85.4903 66.0598 84.3813C66.0598 83.2722 66.8913 82.4404 68 82.4404C69.0163 82.4404 69.9402 83.2722 69.9402 84.3813Z" fill="#FFCF2D"/>
<path d="M86.4783 84.3813C86.4783 85.4903 85.6468 86.3221 84.5381 86.3221C83.4294 86.3221 82.5979 85.4903 82.5979 84.3813C82.5979 83.2722 83.4294 82.4404 84.5381 82.4404C85.6468 82.4404 86.4783 83.2722 86.4783 84.3813Z" fill="#FFCF2D"/>
<path d="M102.924 84.3813C102.924 85.4903 102.092 86.3221 100.984 86.3221C99.875 86.3221 99.0435 85.4903 99.0435 84.3813C99.0435 83.2722 99.875 82.4404 100.984 82.4404C102.092 82.4404 102.924 83.2722 102.924 84.3813Z" fill="#FFCF2D"/>
<path d="M119.462 84.3813C119.462 85.4903 118.63 86.3221 117.522 86.3221C116.413 86.3221 115.582 85.4903 115.582 84.3813C115.582 83.2722 116.413 82.4404 117.522 82.4404C118.63 82.4404 119.462 83.2722 119.462 84.3813Z" fill="#FFCF2D"/>
<path d="M136 84.3813C136 85.4903 135.169 86.3221 134.06 86.3221C132.951 86.3221 132.12 85.4903 132.12 84.3813C132.12 83.2722 132.951 82.4404 134.06 82.4404C135.076 82.4404 136 83.2722 136 84.3813Z" fill="#FFCF2D"/>
<path d="M3.88043 98.059C3.88043 99.1681 3.04891 99.9999 1.94022 99.9999C0.831522 99.9999 0 99.1681 0 98.059C0 96.95 0.831522 96.1182 1.94022 96.1182C3.04891 96.1182 3.88043 97.0424 3.88043 98.059Z" fill="#FFCF2D"/>
<path d="M20.4185 98.059C20.4185 99.1681 19.587 99.9999 18.4783 99.9999C17.3696 99.9999 16.5381 99.1681 16.5381 98.059C16.5381 96.95 17.3696 96.1182 18.4783 96.1182C19.4946 96.1182 20.4185 97.0424 20.4185 98.059Z" fill="#FFCF2D"/>
<path d="M36.8641 98.059C36.8641 99.1681 36.0326 99.9999 34.9239 99.9999C33.8152 99.9999 32.9836 99.1681 32.9836 98.059C32.9836 96.95 33.8152 96.1182 34.9239 96.1182C36.0326 96.1182 36.8641 97.0424 36.8641 98.059Z" fill="#FFCF2D"/>
<path d="M53.4022 98.059C53.4022 99.1681 52.5706 99.9999 51.4619 99.9999C50.3533 99.9999 49.5217 99.1681 49.5217 98.059C49.5217 96.95 50.3533 96.1182 51.4619 96.1182C52.5706 96.1182 53.4022 97.0424 53.4022 98.059Z" fill="#FFCF2D"/>
<path d="M69.9402 98.059C69.9402 99.1681 69.1087 99.9999 68 99.9999C66.8913 99.9999 66.0598 99.1681 66.0598 98.059C66.0598 96.95 66.8913 96.1182 68 96.1182C69.0163 96.1182 69.9402 97.0424 69.9402 98.059Z" fill="#FFCF2D"/>
<path d="M86.4783 98.059C86.4783 99.1681 85.6468 99.9999 84.5381 99.9999C83.4294 99.9999 82.5979 99.1681 82.5979 98.059C82.5979 96.95 83.4294 96.1182 84.5381 96.1182C85.6468 96.1182 86.4783 97.0424 86.4783 98.059Z" fill="#FFCF2D"/>
<path d="M102.924 98.059C102.924 99.1681 102.092 99.9999 100.984 99.9999C99.875 99.9999 99.0435 99.1681 99.0435 98.059C99.0435 96.95 99.875 96.1182 100.984 96.1182C102.092 96.1182 102.924 97.0424 102.924 98.059Z" fill="#FFCF2D"/>
<path d="M119.462 98.059C119.462 99.1681 118.63 99.9999 117.522 99.9999C116.413 99.9999 115.582 99.1681 115.582 98.059C115.582 96.95 116.413 96.1182 117.522 96.1182C118.63 96.1182 119.462 97.0424 119.462 98.059Z" fill="#FFCF2D"/>
<path d="M136 98.059C136 99.1681 135.169 99.9999 134.06 99.9999C132.951 99.9999 132.12 99.1681 132.12 98.059C132.12 96.95 132.951 96.1182 134.06 96.1182C135.076 96.1182 136 97.0424 136 98.059Z" fill="#FFCF2D"/>
</g>
<defs>
<clipPath id="clip0_2355_2274">
<rect width="136" height="100" fill="white"/>
</clipPath>
</defs>
</svg>
