<svg width="48" height="48" fill="none" xmlns="http://www.w3.org/2000/svg"><path d="M33.298 37a.94.94 0 0 0-1.338-.012l-.01.01a.94.94 0 0 0 .646 1.62.944.944 0 0 0 .665-.28.939.939 0 0 0 .037-1.337Z" fill="#FF3F3A"/><path d="M41.787 18.953a.937.937 0 0 0-1.758.65 19.617 19.617 0 0 1 1.22 6.838c0 10.854-8.831 19.685-19.686 19.685a19.57 19.57 0 0 1-11.197-3.493.937.937 0 1 0-1.067 1.54A21.435 21.435 0 0 0 21.564 48a21.418 21.418 0 0 0 15.244-6.315 21.418 21.418 0 0 0 6.315-15.244c0-2.575-.45-5.094-1.336-7.488ZM28.823 6.134a21.502 21.502 0 0 0-7.26-1.253A21.419 21.419 0 0 0 6.32 11.195 21.419 21.419 0 0 0 .004 26.44c0 4.466 1.353 8.75 3.914 12.39a.936.936 0 0 0 1.306.228.937.937 0 0 0 .227-1.306A19.559 19.559 0 0 1 1.88 26.44c0-10.854 8.83-19.684 19.684-19.684 2.276 0 4.506.384 6.629 1.143a.937.937 0 1 0 .631-1.765Z" fill="#FF3F3A"/><path d="M47.925 7.774a.937.937 0 0 0-.866-.579h-4.925l.53-.53a.938.938 0 0 0-1.326-1.325l-.537.536V.937a.938.938 0 0 0-1.6-.662l-8.263 8.263a.938.938 0 0 0-.275.663v3.252a16.5 16.5 0 0 0-9.1-2.698c-9.2 0-16.686 7.485-16.686 16.685s7.485 16.686 16.686 16.686a16.66 16.66 0 0 0 8.639-2.408.938.938 0 0 0-.972-1.604 14.784 14.784 0 0 1-7.667 2.137c-8.167 0-14.81-6.644-14.81-14.81 0-8.167 6.643-14.811 14.81-14.811 3.334 0 6.48 1.08 9.1 3.126v1.258l-1.708 1.708a11.385 11.385 0 0 0-7.392-2.718c-6.306 0-11.436 5.13-11.436 11.436s5.13 11.436 11.436 11.436c6.305 0 11.435-5.13 11.435-11.436 0-2.816-1.023-5.397-2.717-7.392l1.714-1.715h1.247a14.843 14.843 0 0 1 3.13 9.107c0 2.764-.765 5.46-2.214 7.795a.937.937 0 1 0 1.593.988 16.645 16.645 0 0 0 2.497-8.783 16.73 16.73 0 0 0-2.705-9.107h3.252a.938.938 0 0 0 .663-.274l8.264-8.264a.937.937 0 0 0 .203-1.021ZM31.124 26.44c0 5.271-4.29 9.56-9.561 9.56-5.272 0-9.561-4.288-9.561-9.56s4.289-9.562 9.56-9.562c2.3 0 4.412.816 6.063 2.173l-2.135 2.135a6.527 6.527 0 0 0-3.927-1.308A6.569 6.569 0 0 0 15 26.44a6.569 6.569 0 0 0 6.562 6.562 6.57 6.57 0 0 0 6.561-6.562 6.527 6.527 0 0 0-1.308-3.927l2.135-2.135a9.517 9.517 0 0 1 2.173 6.063Zm-10.224.662a.934.934 0 0 0 1.326 0l3.245-3.245a4.66 4.66 0 0 1 .779 2.582 4.692 4.692 0 0 1-4.687 4.687 4.692 4.692 0 0 1-4.687-4.686 4.692 4.692 0 0 1 4.687-4.687c.954 0 1.841.287 2.582.778L20.9 25.778a.938.938 0 0 0 0 1.325ZM32.538 14.14V9.59l6.389-6.39v4.55l-6.389 6.39Zm5.87 1.319H33.87l6.39-6.39h4.536l-6.389 6.39ZM7.624 40.34a.94.94 0 0 0-1.6.663.94.94 0 0 0 .938.937c.246 0 .488-.1.662-.274a.945.945 0 0 0 .275-.663c0-.247-.1-.488-.275-.663Z" fill="#FF3F3A"/></svg>