<svg width="48" height="48" fill="none" xmlns="http://www.w3.org/2000/svg"><path d="M45.35 26.441A17.166 17.166 0 0 0 48 17.25C48 7.738 40.262 0 30.75 0c-3.186 0-6.299.876-9.002 2.532a.937.937 0 1 0 .98 1.599 15.341 15.341 0 0 1 8.022-2.256c8.478 0 15.375 6.897 15.375 15.375 0 3.075-.904 6.042-2.616 8.58a.938.938 0 0 0 .026 1.086l1.028 3.834-4.124-1.105a.937.937 0 0 0-.786.141 15.27 15.27 0 0 1-8.903 2.839c-1.831 0-3.622-.32-5.326-.95a12.987 12.987 0 0 0-9.1-9.099 15.313 15.313 0 0 1-.949-5.326c0-2.872.797-5.672 2.303-8.098a.938.938 0 0 0-1.593-.99A17.21 17.21 0 0 0 13.5 17.25c0 1.686.242 3.342.72 4.939-.422-.042-.85-.064-1.282-.064C5.804 22.125 0 27.93 0 35.063c0 2.56.74 5.018 2.145 7.136l-1.003 3.745a.938.938 0 0 0 1.148 1.148l3.838-1.028A12.88 12.88 0 0 0 12.938 48a12.9 12.9 0 0 0 6.931-2.012.938.938 0 0 0-1.006-1.582 11.026 11.026 0 0 1-5.925 1.719 11.01 11.01 0 0 1-6.132-1.854.937.937 0 0 0-.763-.126l-2.67.716.695-2.594a.937.937 0 0 0-.142-.787 10.986 10.986 0 0 1-2.05-6.417C1.875 28.962 6.837 24 12.937 24S24 28.963 24 35.063c0 1.302-.224 2.577-.666 3.789a.938.938 0 0 0 1.762.642 12.9 12.9 0 0 0 .716-5.713 17.21 17.21 0 0 0 4.938.719 17.13 17.13 0 0 0 9.623-2.932l5.273 1.413a.937.937 0 0 0 1.148-1.148L45.35 26.44Z" fill="#FF3F3A"/><path d="M35.583 19.246h-9.55a.938.938 0 0 0-.937.938 5.718 5.718 0 0 0 5.712 5.711 5.718 5.718 0 0 0 5.712-5.711.938.938 0 0 0-.937-.938Zm-4.775 4.774a3.844 3.844 0 0 1-3.72-2.899h7.441a3.844 3.844 0 0 1-3.72 2.9Zm7.3-9.974a.938.938 0 0 0-1.29-.307l-.122.075a.937.937 0 1 0 .985 1.596l.12-.075a.937.937 0 0 0 .307-1.29Zm-12.881-.001a.938.938 0 0 0-1.29-.306l-.123.075a.937.937 0 1 0 .986 1.595l.12-.074a.937.937 0 0 0 .307-1.29ZM8.443 34.4a.945.945 0 0 0-.662-.275c-.247 0-.489.1-.663.275a.945.945 0 0 0-.275.663c0 .246.1.488.275.662A.944.944 0 0 0 7.78 36a.94.94 0 0 0 .662-.275.945.945 0 0 0 .275-.663.94.94 0 0 0-.275-.662Zm5.157 0a.945.945 0 0 0-.663-.275c-.247 0-.489.1-.663.275a.944.944 0 0 0-.275.663c0 .246.1.488.275.662a.944.944 0 0 0 .663.275c.246 0 .488-.1.663-.275a.944.944 0 0 0 .274-.663c0-.246-.1-.488-.274-.662Zm5.157 0a.945.945 0 0 0-.663-.275c-.247 0-.489.1-.663.275a.945.945 0 0 0-.275.663c0 .246.1.488.275.662a.945.945 0 0 0 .663.275c.246 0 .488-.1.663-.275a.945.945 0 0 0 .274-.663c0-.246-.1-.488-.274-.662Zm4.196 7.518a.945.945 0 0 0-.663-.274c-.247 0-.488.1-.662.274a.945.945 0 0 0-.275.663c0 .247.1.488.274.663a.943.943 0 0 0 .663.275c.247 0 .489-.1.663-.275a.945.945 0 0 0 .275-.663c0-.247-.1-.488-.275-.663ZM19.91 5.022a.942.942 0 0 0-1.326 0 .94.94 0 0 0 .663 1.6c.247 0 .488-.1.663-.274a.945.945 0 0 0 .275-.662c0-.248-.1-.489-.275-.664Z" fill="#FF3F3A"/></svg>