<svg width="48" height="48" fill="none" xmlns="http://www.w3.org/2000/svg"><path d="M43.631 17.712a.943.943 0 0 0-.663-.274c-.246 0-.488.1-.663.274a.944.944 0 0 0-.274.663c0 .247.1.488.275.663a.944.944 0 0 0 .662.274c.248 0 .489-.1.663-.274a.945.945 0 0 0 .275-.663c0-.247-.1-.488-.275-.663Z" fill="#FF3F3A"/><path d="M42.781 6.938h-1.073a.936.936 0 0 0 .268-.657V5.063a3.191 3.191 0 0 0-3.187-3.188A3.191 3.191 0 0 0 35.6 5.063v1.875h-8.694a.937.937 0 0 0 .269-.657V5.063a3.191 3.191 0 0 0-3.188-3.188A3.191 3.191 0 0 0 20.8 5.063v1.875h-8.695a.937.937 0 0 0 .269-.657V5.063a3.191 3.191 0 0 0-3.188-3.188A3.191 3.191 0 0 0 6 5.063v1.875h-.781A5.225 5.225 0 0 0 0 12.155v31.156a2.816 2.816 0 0 0 2.813 2.813H19a.938.938 0 0 0 0-1.875H2.812a.939.939 0 0 1-.937-.938v-24h36.5a.938.938 0 0 0 0-1.875h-36.5v-5.28c0-1.845 1.5-3.345 3.344-3.345H6v2.266a3.191 3.191 0 0 0 3.188 3.188 3.191 3.191 0 0 0 3.187-3.188.938.938 0 0 0-1.875 0 1.314 1.314 0 0 1-2.625 0V8.813h12.926v2.265a3.191 3.191 0 0 0 3.187 3.188 3.191 3.191 0 0 0 3.188-3.188.938.938 0 0 0-1.875 0 1.314 1.314 0 0 1-2.625 0V8.813H35.6v2.265a3.191 3.191 0 0 0 3.188 3.188 3.191 3.191 0 0 0 3.187-3.188.938.938 0 0 0-1.875 0c0 .724-.589 1.313-1.312 1.313a1.314 1.314 0 0 1-1.313-1.313V8.813h5.305c1.844 0 3.344 1.5 3.344 3.343v31.156c0 .517-.42.938-.938.938H29a.938.938 0 0 0 0 1.875h16.188A2.816 2.816 0 0 0 48 43.312V12.157a5.225 5.225 0 0 0-5.219-5.219Zm-34.906 0V5.063a1.314 1.314 0 0 1 2.625 0V6.28c0 .256.103.487.269.657H7.875Zm14.8 0V5.063a1.314 1.314 0 0 1 2.625 0V6.28c0 .256.103.487.27.657h-2.894Zm14.801 0V5.063a1.314 1.314 0 0 1 2.625 0V6.28c0 .256.103.487.269.657h-2.894Z" fill="#FF3F3A"/><path d="M9 22.313a3.942 3.942 0 0 0-3.938 3.937A3.942 3.942 0 0 0 9 30.188a3.942 3.942 0 0 0 3.938-3.938A3.942 3.942 0 0 0 9 22.312Zm0 6a2.065 2.065 0 0 1-2.063-2.063c0-1.137.926-2.063 2.063-2.063s2.063.926 2.063 2.063A2.065 2.065 0 0 1 9 28.313Zm30-6a3.942 3.942 0 0 0-3.938 3.937A3.942 3.942 0 0 0 39 30.188a3.942 3.942 0 0 0 3.938-3.938A3.942 3.942 0 0 0 39 22.312Zm0 6a2.065 2.065 0 0 1-2.063-2.063c0-1.137.926-2.063 2.063-2.063s2.063.926 2.063 2.063A2.065 2.065 0 0 1 39 28.313Zm-9.999-6a3.942 3.942 0 0 0-3.938 3.937 3.942 3.942 0 0 0 3.938 3.938 3.942 3.942 0 0 0 3.937-3.938 3.942 3.942 0 0 0-3.937-3.938Zm0 6a2.065 2.065 0 0 1-2.063-2.063c0-1.137.926-2.063 2.063-2.063s2.063.926 2.063 2.063A2.065 2.065 0 0 1 29 28.313Zm-10.002-6a3.942 3.942 0 0 0-3.937 3.937 3.942 3.942 0 0 0 3.937 3.938 3.942 3.942 0 0 0 3.938-3.938 3.942 3.942 0 0 0-3.938-3.938Zm0 6a2.065 2.065 0 0 1-2.063-2.063c0-1.137.926-2.063 2.063-2.063s2.063.926 2.063 2.063a2.065 2.065 0 0 1-2.063 2.063ZM9 33.75a3.942 3.942 0 0 0-3.938 3.938A3.942 3.942 0 0 0 9 41.624a3.942 3.942 0 0 0 3.938-3.938A3.942 3.942 0 0 0 9 33.75Zm0 6a2.065 2.065 0 0 1-2.063-2.063c0-1.137.926-2.062 2.063-2.062s2.063.925 2.063 2.063A2.065 2.065 0 0 1 9 39.75Zm20.001-6a3.942 3.942 0 0 0-3.938 3.938 3.942 3.942 0 0 0 3.938 3.937 3.942 3.942 0 0 0 3.937-3.938 3.942 3.942 0 0 0-3.937-3.937Zm0 6a2.065 2.065 0 0 1-2.063-2.063c0-1.137.926-2.062 2.063-2.062s2.063.925 2.063 2.063A2.065 2.065 0 0 1 29 39.75Zm9.999-6a3.942 3.942 0 0 0-3.938 3.938A3.942 3.942 0 0 0 39 41.624a3.942 3.942 0 0 0 3.938-3.938A3.942 3.942 0 0 0 39 33.75Zm0 6a2.065 2.065 0 0 1-2.063-2.063c0-1.137.926-2.062 2.063-2.062s2.063.925 2.063 2.063A2.065 2.065 0 0 1 39 39.75Zm-20.001-6a3.942 3.942 0 0 0-3.937 3.938 3.942 3.942 0 0 0 3.937 3.937 3.942 3.942 0 0 0 3.938-3.938 3.942 3.942 0 0 0-3.938-3.937Zm0 6a2.065 2.065 0 0 1-2.063-2.063c0-1.137.926-2.062 2.063-2.062s2.063.925 2.063 2.063a2.065 2.065 0 0 1-2.063 2.062Zm5.664 4.775A.944.944 0 0 0 24 44.25a.94.94 0 0 0-.663 1.6.943.943 0 0 0 .663.275c.247 0 .488-.1.663-.275a.945.945 0 0 0 .274-.663c0-.246-.1-.488-.274-.662Z" fill="#FF3F3A"/></svg>