<svg width="48" height="48" fill="none" xmlns="http://www.w3.org/2000/svg"><g clip-path="url(#a)" fill="#FF3F3A"><path d="M32.802 23.618a.944.944 0 0 0-.663-.274c-.246 0-.488.1-.662.274a.944.944 0 0 0-.275.663c0 .246.1.488.275.662a.944.944 0 0 0 .662.275c.247 0 .488-.1.663-.275a.944.944 0 0 0 .275-.662c0-.247-.1-.488-.275-.663Z"/><path d="M38.98 2.542H8.997a.937.937 0 0 0-.938.937v14.993c0 .517.42.937.938.937H23.05v3.935H7.044a.937.937 0 0 0-.938.937v7.31H.938a.937.937 0 0 0-.937.936v11.994c0 .518.42.937.937.937h11.994c.518 0 .937-.42.937-.937V32.527a.937.937 0 0 0-.937-.937h-4.95v-6.372h15.07v6.372h-5.048a.937.937 0 0 0-.937.937v11.994c0 .518.42.937.937.937h11.994c.518 0 .937-.42.937-.937V32.527a.937.937 0 0 0-.937-.937h-5.072v-6.372h3.748a.937.937 0 0 0 0-1.874h-3.748V19.41h14.056c.517 0 .937-.42.937-.937V3.479a.937.937 0 0 0-.937-.937ZM11.995 33.464v10.12H1.874v-10.12h10.12Zm17.066 0v10.12H18.94v-10.12h10.12Zm8.984-15.93H9.933v-9.37h6.347a.937.937 0 0 0 0-1.874H9.933V4.416h28.11v13.119Z"/><path d="M47.064 31.59H41.87v-7.31a.937.937 0 0 0-.937-.936h-5.138a.937.937 0 0 0 0 1.874h4.201v6.372H35.07a.937.937 0 0 0-.937.937V44.52c0 .517.42.937.937.937h11.994c.517 0 .937-.42.937-.937V32.527a.937.937 0 0 0-.937-.937Zm-.937 11.994h-10.12v-10.12h10.12v10.12ZM20.884 6.565a.945.945 0 0 0-.662-.275c-.247 0-.488.1-.663.275a.943.943 0 0 0 0 1.325.948.948 0 0 0 .663.274c.246 0 .487-.1.662-.275a.944.944 0 0 0 .275-.662c0-.246-.1-.488-.274-.662Z"/></g><defs><clipPath id="a"><path fill="#fff" d="M0 0h48v48H0z"/></clipPath></defs></svg>